<mxfile host="app.diagrams.net" agent="Mozilla/5.0 (Windows NT 10.0; Win64; x64) AppleWebKit/537.36 (KHTML, like Gecko) Chrome/137.0.0.0 Safari/537.36" version="27.1.5" pages="2">
  <diagram name="第 1 页" id="InKmPqcGqQBNdsvMSCuG">
    <mxGraphModel dx="946" dy="563" grid="0" gridSize="10" guides="1" tooltips="1" connect="1" arrows="1" fold="1" page="1" pageScale="1" pageWidth="827" pageHeight="1169" math="0" shadow="1">
      <root>
        <mxCell id="0" />
        <mxCell id="1" parent="0" />
        <mxCell id="GK6LHHyNofFlqoM5Labt-6" style="edgeStyle=orthogonalEdgeStyle;rounded=0;orthogonalLoop=1;jettySize=auto;html=1;exitX=1;exitY=0.25;exitDx=0;exitDy=0;" edge="1" parent="1" source="GK6LHHyNofFlqoM5Labt-1">
          <mxGeometry relative="1" as="geometry">
            <mxPoint x="470" y="255" as="targetPoint" />
          </mxGeometry>
        </mxCell>
        <mxCell id="GK6LHHyNofFlqoM5Labt-7" style="edgeStyle=orthogonalEdgeStyle;rounded=0;orthogonalLoop=1;jettySize=auto;html=1;exitX=1;exitY=0.75;exitDx=0;exitDy=0;" edge="1" parent="1" source="GK6LHHyNofFlqoM5Labt-1">
          <mxGeometry relative="1" as="geometry">
            <mxPoint x="470" y="285" as="targetPoint" />
          </mxGeometry>
        </mxCell>
        <mxCell id="GK6LHHyNofFlqoM5Labt-1" value="CMSIS DAP Link" style="rounded=0;whiteSpace=wrap;html=1;fillColor=#d5e8d4;strokeColor=#82b366;" vertex="1" parent="1">
          <mxGeometry x="240" y="240" width="120" height="60" as="geometry" />
        </mxCell>
        <mxCell id="GK6LHHyNofFlqoM5Labt-5" value="" style="sketch=0;aspect=fixed;pointerEvents=1;shadow=0;dashed=0;html=1;strokeColor=none;labelPosition=center;verticalLabelPosition=bottom;verticalAlign=top;align=center;fillColor=#00188D;shape=mxgraph.mscae.enterprise.usb" vertex="1" parent="1">
          <mxGeometry x="389" y="290" width="50" height="23" as="geometry" />
        </mxCell>
        <mxCell id="GK6LHHyNofFlqoM5Labt-9" value="USB" style="text;html=1;align=center;verticalAlign=middle;resizable=0;points=[];autosize=1;strokeColor=none;fillColor=none;" vertex="1" parent="1">
          <mxGeometry x="389" y="218" width="50" height="30" as="geometry" />
        </mxCell>
        <mxCell id="GK6LHHyNofFlqoM5Labt-18" style="edgeStyle=orthogonalEdgeStyle;rounded=0;orthogonalLoop=1;jettySize=auto;html=1;exitX=1;exitY=0.25;exitDx=0;exitDy=0;" edge="1" parent="1" source="GK6LHHyNofFlqoM5Labt-10">
          <mxGeometry relative="1" as="geometry">
            <mxPoint x="650" y="255" as="targetPoint" />
          </mxGeometry>
        </mxCell>
        <mxCell id="GK6LHHyNofFlqoM5Labt-20" style="edgeStyle=orthogonalEdgeStyle;rounded=0;orthogonalLoop=1;jettySize=auto;html=1;exitX=1;exitY=0.75;exitDx=0;exitDy=0;" edge="1" parent="1" source="GK6LHHyNofFlqoM5Labt-10">
          <mxGeometry relative="1" as="geometry">
            <mxPoint x="650" y="285" as="targetPoint" />
          </mxGeometry>
        </mxCell>
        <mxCell id="GK6LHHyNofFlqoM5Labt-10" value="PC" style="rounded=0;whiteSpace=wrap;html=1;fillColor=#e1d5e7;strokeColor=#9673a6;" vertex="1" parent="1">
          <mxGeometry x="480" y="240" width="120" height="60" as="geometry" />
        </mxCell>
        <mxCell id="GK6LHHyNofFlqoM5Labt-13" style="edgeStyle=orthogonalEdgeStyle;rounded=0;orthogonalLoop=1;jettySize=auto;html=1;exitX=1;exitY=0.25;exitDx=0;exitDy=0;entryX=0;entryY=0.25;entryDx=0;entryDy=0;" edge="1" parent="1" source="GK6LHHyNofFlqoM5Labt-12" target="GK6LHHyNofFlqoM5Labt-1">
          <mxGeometry relative="1" as="geometry" />
        </mxCell>
        <mxCell id="GK6LHHyNofFlqoM5Labt-16" style="edgeStyle=orthogonalEdgeStyle;rounded=0;orthogonalLoop=1;jettySize=auto;html=1;exitX=1;exitY=0.75;exitDx=0;exitDy=0;entryX=0;entryY=0.75;entryDx=0;entryDy=0;" edge="1" parent="1" source="GK6LHHyNofFlqoM5Labt-12" target="GK6LHHyNofFlqoM5Labt-1">
          <mxGeometry relative="1" as="geometry" />
        </mxCell>
        <mxCell id="GK6LHHyNofFlqoM5Labt-12" value="MCU" style="rounded=0;whiteSpace=wrap;html=1;fillColor=#dae8fc;strokeColor=#6c8ebf;" vertex="1" parent="1">
          <mxGeometry x="80" y="240" width="80" height="60" as="geometry" />
        </mxCell>
        <mxCell id="GK6LHHyNofFlqoM5Labt-15" value="SWD/JTAG" style="text;html=1;align=center;verticalAlign=middle;resizable=0;points=[];autosize=1;strokeColor=none;fillColor=none;" vertex="1" parent="1">
          <mxGeometry x="160" y="230" width="80" height="30" as="geometry" />
        </mxCell>
        <mxCell id="GK6LHHyNofFlqoM5Labt-17" value="UART" style="text;html=1;align=center;verticalAlign=middle;resizable=0;points=[];autosize=1;strokeColor=none;fillColor=none;" vertex="1" parent="1">
          <mxGeometry x="170" y="280" width="60" height="30" as="geometry" />
        </mxCell>
        <mxCell id="GK6LHHyNofFlqoM5Labt-19" value="USB CDC 虚拟串口" style="text;html=1;align=center;verticalAlign=middle;resizable=0;points=[];autosize=1;strokeColor=none;fillColor=none;" vertex="1" parent="1">
          <mxGeometry x="660" y="238" width="130" height="30" as="geometry" />
        </mxCell>
        <mxCell id="GK6LHHyNofFlqoM5Labt-21" value="真实串口" style="text;html=1;align=center;verticalAlign=middle;resizable=0;points=[];autosize=1;strokeColor=none;fillColor=none;" vertex="1" parent="1">
          <mxGeometry x="660" y="270" width="70" height="30" as="geometry" />
        </mxCell>
        <mxCell id="GK6LHHyNofFlqoM5Labt-22" value="硬件连接" style="text;html=1;align=center;verticalAlign=middle;resizable=0;points=[];autosize=1;strokeColor=none;fillColor=none;" vertex="1" parent="1">
          <mxGeometry x="280" y="178" width="70" height="30" as="geometry" />
        </mxCell>
        <mxCell id="GK6LHHyNofFlqoM5Labt-23" value="数据流" style="text;html=1;align=center;verticalAlign=middle;resizable=0;points=[];autosize=1;strokeColor=none;fillColor=none;" vertex="1" parent="1">
          <mxGeometry x="270" y="340" width="60" height="30" as="geometry" />
        </mxCell>
        <mxCell id="GK6LHHyNofFlqoM5Labt-26" style="edgeStyle=orthogonalEdgeStyle;rounded=0;orthogonalLoop=1;jettySize=auto;html=1;exitX=1;exitY=0.5;exitDx=0;exitDy=0;entryX=0;entryY=0.5;entryDx=0;entryDy=0;" edge="1" parent="1" source="GK6LHHyNofFlqoM5Labt-24" target="GK6LHHyNofFlqoM5Labt-25">
          <mxGeometry relative="1" as="geometry" />
        </mxCell>
        <mxCell id="GK6LHHyNofFlqoM5Labt-24" value="MCU&lt;div&gt;写入RTT 控制块&lt;/div&gt;" style="rounded=0;whiteSpace=wrap;html=1;fillColor=#dae8fc;strokeColor=#6c8ebf;" vertex="1" parent="1">
          <mxGeometry x="80" y="400" width="80" height="60" as="geometry" />
        </mxCell>
        <mxCell id="GK6LHHyNofFlqoM5Labt-31" style="edgeStyle=orthogonalEdgeStyle;rounded=0;orthogonalLoop=1;jettySize=auto;html=1;exitX=1;exitY=0.5;exitDx=0;exitDy=0;entryX=0;entryY=0.5;entryDx=0;entryDy=0;" edge="1" parent="1" source="GK6LHHyNofFlqoM5Labt-25" target="GK6LHHyNofFlqoM5Labt-29">
          <mxGeometry relative="1" as="geometry" />
        </mxCell>
        <mxCell id="GK6LHHyNofFlqoM5Labt-25" value="CMSIS DAP Link&lt;div&gt;解析RTT 控制块&lt;/div&gt;&lt;div&gt;通过usb in 端点发出&lt;br&gt;&lt;div&gt;&lt;br&gt;&lt;/div&gt;&lt;/div&gt;" style="rounded=0;whiteSpace=wrap;html=1;fillColor=#d5e8d4;strokeColor=#82b366;" vertex="1" parent="1">
          <mxGeometry x="240" y="400" width="120" height="60" as="geometry" />
        </mxCell>
        <mxCell id="GK6LHHyNofFlqoM5Labt-27" value="SWD/JTAG&lt;div&gt;物理访问&lt;/div&gt;" style="text;html=1;align=center;verticalAlign=middle;resizable=0;points=[];autosize=1;strokeColor=none;fillColor=none;" vertex="1" parent="1">
          <mxGeometry x="160" y="410" width="80" height="40" as="geometry" />
        </mxCell>
        <mxCell id="GK6LHHyNofFlqoM5Labt-28" value="jlink 是自定义驱动&lt;div&gt;dap 是虚拟的cdc 串口&lt;/div&gt;" style="text;html=1;align=center;verticalAlign=middle;resizable=0;points=[];autosize=1;strokeColor=none;fillColor=none;" vertex="1" parent="1">
          <mxGeometry x="230" y="470" width="140" height="40" as="geometry" />
        </mxCell>
        <mxCell id="GK6LHHyNofFlqoM5Labt-29" value="&lt;div&gt;PC&lt;/div&gt;串口直接接收数据" style="rounded=0;whiteSpace=wrap;html=1;fillColor=#e1d5e7;strokeColor=#9673a6;" vertex="1" parent="1">
          <mxGeometry x="480" y="400" width="120" height="60" as="geometry" />
        </mxCell>
        <mxCell id="GK6LHHyNofFlqoM5Labt-32" style="edgeStyle=orthogonalEdgeStyle;rounded=0;orthogonalLoop=1;jettySize=auto;html=1;exitX=1;exitY=0.5;exitDx=0;exitDy=0;entryX=0;entryY=0.5;entryDx=0;entryDy=0;" edge="1" parent="1" source="GK6LHHyNofFlqoM5Labt-33" target="GK6LHHyNofFlqoM5Labt-35">
          <mxGeometry relative="1" as="geometry" />
        </mxCell>
        <mxCell id="GK6LHHyNofFlqoM5Labt-33" value="MCU&lt;div&gt;写入RTT 控制块&lt;/div&gt;" style="rounded=0;whiteSpace=wrap;html=1;fillColor=#dae8fc;strokeColor=#6c8ebf;" vertex="1" parent="1">
          <mxGeometry x="80" y="520" width="80" height="60" as="geometry" />
        </mxCell>
        <mxCell id="GK6LHHyNofFlqoM5Labt-35" value="CMSIS DAP Link&lt;div&gt;打包RTT 控制块&lt;/div&gt;&lt;div&gt;通过SWD/JTAG 发送&lt;br&gt;&lt;div&gt;&lt;br&gt;&lt;/div&gt;&lt;/div&gt;" style="rounded=0;whiteSpace=wrap;html=1;fillColor=#d5e8d4;strokeColor=#82b366;" vertex="1" parent="1">
          <mxGeometry x="240" y="520" width="120" height="60" as="geometry" />
        </mxCell>
        <mxCell id="GK6LHHyNofFlqoM5Labt-36" value="SWD/JTAG&lt;div&gt;物理访问&lt;/div&gt;" style="text;html=1;align=center;verticalAlign=middle;resizable=0;points=[];autosize=1;strokeColor=none;fillColor=none;" vertex="1" parent="1">
          <mxGeometry x="160" y="530" width="80" height="40" as="geometry" />
        </mxCell>
        <mxCell id="GK6LHHyNofFlqoM5Labt-37" value="jlink 是自定义驱动&lt;div&gt;dap 是虚拟的cdc 串口&lt;/div&gt;" style="text;html=1;align=center;verticalAlign=middle;resizable=0;points=[];autosize=1;strokeColor=none;fillColor=none;" vertex="1" parent="1">
          <mxGeometry x="230" y="590" width="140" height="40" as="geometry" />
        </mxCell>
        <mxCell id="GK6LHHyNofFlqoM5Labt-39" style="edgeStyle=orthogonalEdgeStyle;rounded=0;orthogonalLoop=1;jettySize=auto;html=1;exitX=0;exitY=0.5;exitDx=0;exitDy=0;entryX=1;entryY=0.5;entryDx=0;entryDy=0;" edge="1" parent="1" source="GK6LHHyNofFlqoM5Labt-38" target="GK6LHHyNofFlqoM5Labt-35">
          <mxGeometry relative="1" as="geometry" />
        </mxCell>
        <mxCell id="GK6LHHyNofFlqoM5Labt-38" value="&lt;div&gt;PC&lt;/div&gt;串口直接接收数据" style="rounded=0;whiteSpace=wrap;html=1;fillColor=#e1d5e7;strokeColor=#9673a6;" vertex="1" parent="1">
          <mxGeometry x="480" y="520" width="120" height="60" as="geometry" />
        </mxCell>
        <mxCell id="GK6LHHyNofFlqoM5Labt-40" value="" style="sketch=0;aspect=fixed;pointerEvents=1;shadow=0;dashed=0;html=1;strokeColor=none;labelPosition=center;verticalLabelPosition=bottom;verticalAlign=top;align=center;fillColor=#00188D;shape=mxgraph.mscae.enterprise.usb" vertex="1" parent="1">
          <mxGeometry x="389" y="390" width="50" height="23" as="geometry" />
        </mxCell>
        <mxCell id="GK6LHHyNofFlqoM5Labt-41" value="" style="sketch=0;aspect=fixed;pointerEvents=1;shadow=0;dashed=0;html=1;strokeColor=none;labelPosition=center;verticalLabelPosition=bottom;verticalAlign=top;align=center;fillColor=#00188D;shape=mxgraph.mscae.enterprise.usb" vertex="1" parent="1">
          <mxGeometry x="400" y="507" width="50" height="23" as="geometry" />
        </mxCell>
        <mxCell id="qZVvJHK-JnwJsrwp6wKQ-2" value="&lt;font style=&quot;color: rgb(255, 26, 18);&quot;&gt;速度瓶颈：&amp;nbsp;&lt;/font&gt;&lt;div&gt;&lt;font style=&quot;color: rgb(255, 26, 18);&quot;&gt;USB 速率，FS 和 HS 速率差异&lt;/font&gt;&lt;/div&gt;&lt;div&gt;&lt;font style=&quot;color: rgb(255, 26, 18);&quot;&gt;SWD 传输速率：GPIO 反转速率/或者spi 模拟SWD&lt;/font&gt;&lt;/div&gt;" style="text;html=1;align=left;verticalAlign=middle;resizable=0;points=[];autosize=1;strokeColor=none;fillColor=none;" vertex="1" parent="1">
          <mxGeometry x="90" y="630" width="290" height="60" as="geometry" />
        </mxCell>
      </root>
    </mxGraphModel>
  </diagram>
  <diagram id="kRUAMTP9ou9Q3TAHCknL" name="第 2 页">
    <mxGraphModel dx="946" dy="563" grid="1" gridSize="10" guides="1" tooltips="1" connect="1" arrows="1" fold="1" page="1" pageScale="1" pageWidth="827" pageHeight="1169" math="0" shadow="0">
      <root>
        <mxCell id="0" />
        <mxCell id="1" parent="0" />
        <mxCell id="ovNKK6HrrYndtRHTVVWM-1" value="" style="shape=image;verticalLabelPosition=bottom;labelBackgroundColor=default;verticalAlign=top;aspect=fixed;imageAspect=0;image=data:image/png,iVBORw0KGgoAAAANSUhEUgAAA30AAAJPCAIAAABHLSr8AAAgAElEQVR4AezdjV9UZf4//v1T5poZ+ASWKK5ytzyQYtke37xZdXUxUlNzvQcT0ShvU9dYdRdDBVMzCys11LAQFUPTIjUDbzABTRB05KYRkGlGZ5r5le/2+l2dOw7MyI5nXjx8+Dhz5txc53mdueY117n7gw9/EIAABCAAAQhAAAIQePwCf3j8q8AaIAABCEAAAhCAAAQg4EPuxE4AAQhAAAIQgAAEINAfAsid/aGMdUAAAhCAAAQgAAEIIHdiH4AABCAAAQhAAAIQ6A8B5M7+UMY6IAABCEAAAhCAAASQO7EPQAACEIAABCAAAQj0hwByZ38oYx0QgAAEIAABCEAAAsid2AcgAAEIQAACEIAABPpDALmzP5SxDghAAAIQgAAEIAAB5E7sAxCAAAQgAAEIQAAC/SGA3NkfylgHBCAAAQhAAAIQgAByJ/YBCEAAAhCAAAQgAIH+EEDu7A9lrAMCEIAABCAAAQhAALkT+wAEIAABCEAAAhCAQH8IIHf2hzLWAQEIQAACEIAABCCA3Il9AAIQgAAEIAABCECgPwSQO/tDGeuAAAQgAAEIQAACEEDuxD4AAQhAAAIQgAAEINAfAsid/aGMdUAAAhCAAAQgAAEIIHdiH4AABCAAAQhAAAIQ6A8B5M7+UMY6IAABCEAAAhCAAASQO7EPQAACEIAABCAAAQj0hwByZ38oYx0QgAAEIAABCEAAAsid2AcgAAEIQAACEIAABPpDALmzP5SxDghAAAIQgAAEIAAB5E7sAxCAAAQgAAEIQAAC/SGA3NkfylgHBCAAAQhAAAIQgAByJ/YBCEAAAhCAAAQgAIH+EEDu7A9lrAMCEIAABCAAAQhAALkT+wAEIAABCEAAAhCAQH8IIHf2hzLWAQEIQAACEIAABCCA3Il9AAIQgAAEIAABCECgPwSQO/tDGeuAAAQgAAEIQAACEEDuxD4AAQhAAAIQgAAEINAfAgHInQ8ePGhtbW1sbGzAHwQgAAEIQAACEICAIQQaGxtbW1sfPHgQwEDqb+588OABEqch9i5sBAQgAAEIQAACEJAKNDY2BjB6+ps7W1tbGxoaWltbHz58GMA4jEVBAAIQgAAEIAABCPwPBR4+fMhjXqCK4W/upM5OhM5A1QeWAwEIQAACEIAABIJE4OHDhw0NDY2NjYEqj7+5k3pjA1UaLAcCEIAABCAAAQhAIHgEApv0kDuDp2ZREghAAAIQgAAEIBBcAsidwVUfKA0EIAABCEAAAhAwqgByp1FrFtsFAQhAAAIQgAAEgksAuTO46gOlgQAEIAABCEAAAkYVQO40as1iuyAAAQhAAAIQgEBwCSB3Bld9oDQQgAAEIAABCEDAqALInUatWWwXBCAAAQhAAAIQCC4B5M7gqg+UBgIQgAAEIAABCBhVALnTqDWL7YIABCAAAQhAAALBJYDcGVz1gdJAAAIQgAAEIAABowogdxq1ZrFdEIAABCAAAQhAILgEkDuDqz5QGghAAAIQgAAEIGBUAeROo9YstgsCEIAABCAAAQgElwByZ3DVB0oDAQhAAAIQgAAEjCqA3GnUmsV2QQACEIAABCAAgeASQO4MrvpAaSAAAQhAAAIQgIBRBZA7jVqz2C4IQAACEIAABCAQXALIncFVHygNBCAAAQhAAAIQMKoAcqdRaxbbBQEIQAACEIAABIJLALkzuOoDpYEABCAAAQhAAAJGFUDuNGrNYrsgAAEIQAACEIBAcAkgdwZXfaA0EIAABCAAAQhAwKgCyJ1GrVlsFwQgAAEIQAACEAguAeTO4KoPlAYCEIAABCAAAQgYVQC506g1i+2CAAQgAAEIQAACwSWA3Blc9YHSQAACEIAABCAAAaMKIHcatWaxXRCAAAQgAAEIQCC4BJA7g6s+UBoIQAACEIAABCBgVIFQz50Oh2P+/Pnx8fHjx49vb2+XVzOf4Pnnn7927Zp8Aj5m9erV8Y/+zpw5w0eKA52dnbm5uTk5OatWrWpqahLfwrDhBfiOFB8fr7aHGB4BGwgBCEAAAiEugNzpSEtLY4wlJCS0tLTI9waH47cJIiMjL1++LJ+Aj8nKymKP/srLy/nIK1eu7N27t7q6urOzs6WlJSEhgTHW46L47BgwjADfkRhj4h5imA3EhkAAAhCAAAR6FAjR3NnY2Lh8+fJPPvmksbFRnjttNlvpf/8OHjz43HPPMcasVmtBQcF/R5dWVVVJcBVzZ0FBAYXRLVu2IHdKxELqZR9yp9frtdvtLX39czgcISWMjYUABCAAgeAXCNHcefny5cjISLPZXFZWJs+d5eXlFBY1/s/KypLUrmLu5CMPHTqE3CkRM+pLfsYFnXdB/8fFxVksFtqjBg0aJL7FhyXH38WoqrErqr1VUFBgVGFsV48CGjtPWFjYmDFjPv30U6fTScuh9lBtR5KMT0hIOHXqVGRkpGS82ku1Q0k9bgImgAAEDCkQornz/PnzVqs1MjKysrIy4LnzyJEj586d6+rq6u7uHj9+PGMsIiLi4sWLyJ2G/AjJN4r/2FD7JlYbLzn+rhEd1JYgjkfulFdN6IzRs/OkpKTU19f7fD7kztDZMbClEPifC4Ro7uQ9mtHR0bwXKiYmhq4u6tVxdofDsWjRoqysrMTERPFbv6SkpLGxcdiwYYyx8PDwzEd/4eHhjDGz2Txz5swc4a+mpuZ/viugAIES4LlzwIABvC9Trb8zJiaG7zYauVNcFF+mfEBcC3JnoCr0SVyOntzJGEtJSbHZbMidT2IVo8wQeEIFQjR38tMu+Vc+DcgPCfHmW+1ioLa2tqSkJEqTtBCz2cwYGzNmzCeffCJZvtpLSeB4QncmFJsEeO4Ukx/fkSTXFfFecMl4n88nziIuSsO5D7NoLA1vPbkC4p4gNmsej+fSpUvUZFFzpLhr8RZSrd2TyPR2esnseAkBCISOQIjmziVLlihGwISEhLy8PKEjMic7Ozs6Olqxk3Lbtm0ul6u+vn7w4MGRkZHx8fG0zNdee81sNlutVrFxV1wdH4ncaaSPHHKnkWrzCd0WtdxJm3Pu3Dk69sIYmzp1qsvlkmxmb3Nkb6eXrA4vIQCB0BEIxdzpcDjS09MZY3PmzGloaBg7dixjLDY29urVq+3t7ZmZmTwOag+kpaU5HI4zZ86YzeZhw4aNGjWKpv/www9TUlL4vOHh4e+8805paelHH30UFRUlvzS+tLTUZrOFzj5n+C3luZPvAzoHJD8/xOig2Ckll+zDLPKFYIwBBMQ9QezvpE0Te9mpHZNscm9zZG+nl6wOLyEAgdARCMXcabPZ4uLiGGM7duzgrTNvmvWHBmqvd+zYwRgbNWrU1KlTKV4cP378xIkTGzZsoJe8Wedtvc5DV6GzFxpsS/XvQpI8itxpsD3hf7g5vGVTvDkxb4sYY7yBEkvb2xzZ2+nFdWEYAhAIKYFQzJ2VlZUWi8VsNp85c4a3zjx3VlVV8Zt0igP8Rp5RUVEfffRRaWlpZWWl2+2m/tHZs2dnZGRQjCgvL//pp58WL15ML3fv3k27FG/rkTuN/RlTvI+SeP1QH+6jhP5OY+8zAd863rIp5k7xOHt2drbX65UUoLc5srfTS1aHlxCAQOgIhGLu9Pl8N27cWLZsmc1m460zz51qda84ZVtbGx1S37JlC+/l4r1Wt27dys3N5Y/fRO5Usw2F8bz25dcPqW0+3+UYY8idakoYrygg7jxi4+b1emtqavip52az+eTJk/Il9DZH9nZ6+RoxBgIQCBGBEM2dvHZ56xwbG1teXl5QUHD16lWxm5MPy/s76dZ3drt97969V69eledOp9NZUVHBl6B2fmdlZaXH4+FFwsATLbB3717xujQ+nJmZya/kmDRpEh/PB8aMGRMfH19UVMQ3n++cyJ3cBAM6BcSdR3I6h/gyJyfH7XbLl9nbHNnb6eVrxBgIQCBEBEI6d3q93uvXr6empvKG+Omnn87Ly+MvtQckXVDy3Cl2cWksSvH8qhDZ/4y3mXw30KhxjbfEnUqMDuJ4DbQ+zKKxNLz15AqIe4Li/hYWFrZt2zbF0Onz+XqbI3s7/ZMLi5JDAAJ+CoRi7nQ6nfv3709PTw8LC5O0yJGRkfx6IMlb8peSKMADBz/Ojtzp5975JM7OdwP5DqNnjLhTidFBHK/B0odZNJaGt55cAXFPUNzxpk+fzp+TKd/M3ubI3k4vXyPGQAACISIQirmT30dJ0hy/9NJL5eXlTU1NpaWln3/++Zo1a3bt2sWPkqsdZ+c7Cg8cPHfiODvHCZ0Bvhts3LixRfi7evVqbGws7XLFxcXCOy38Zl6S4+lidEDuDJ1dKCBbKu48/PxOp9M5ffp02gnVzuyktfMcabVaz58/32ORejt9jwvEBBCAgFEFQjF3+ny+lStXUuMbERFBz8nkTbPP57t3797cuXMZY+np6V1dXVT3vB0XpxR3Cx44eO4U3/X5fLz7E9ezS2SM9JLvBpKkyGtffl0R37WQO420J/xvt0XcqcQm6/Tp0/zJwFOmTFHr8uQ5Ur67Km5Xb6dXXAhGQgACoSAQornz6NGjhYWFTU1N9+/fT0tLk9xqpKuri24szxjj593zdlxsxMVdhAcO5E6RJdSG+W6QmZnJO8vFpwYwxt566y3xLd6VjtwZanvL49te3l5JGjdJl2dZWZliGXqbI3s7veJKMRICEAgFgRDNnbxqeessSZPNzc3Jycn0eMzDhw+LD8uWTMkXxQMHcic3CcEBvhtIzuLQ+VLsJeU7J2NMkmLF2CoOq0XYEKyIEN9kceeRNFlil6faRY29zZG9nT7EawebD4FQFkDudMj7O2mHOH78OB2QKigo8Hg8vB2XNOJ87+GBA7mTm4TgAN8NdAZNyWRquVMymZ6X4qJCsCJCfJN5eyXp7/T5fGKXJ2OspKREbtXbHNnb6eVrxBgIQCBEBJA7VXOnx+PJy8u7ePEi7Qq8HdeTOz0eT2VlpdgRJR5ptVqtBQUF4rvHjh27d+9eiOxzxt5MnjslPZT87q3y4+ziW2JY5LucnpQpn0ZclLHNsXVyAXHnkTdZYpfnmDFj+FnsfDm9zZG9nZ6vCAMQgECoCSB3quZO2hVOnz49fPjw+Ph4/pxDeSNOU/LAUV5eLjb68kAgH4MrjQzzwePPWaXHCvDt0riuSLzvgTiXuBeNHDmS32FeYyA7Ozs6Opp2MOROjh+CA+LOI2+yeuzy7G2O7O30IVgj2GQIQIAEkDt7yJ12u128sTxjTO0iUOROfKg0BDRyp9pcYnTQGSL7MIva2jEeAhCAAAQgEHAB5M4ecqfX683OzuY9lCkpKTU1NYrVIOZOxePs4oF1yTCOsyuSGmlk33Ln/Pnz4x/9ic/P1GBxOBy9nUVjaXgLAhCAAAQgEFiBUM+dXq/Xbre3tLS0t7erPSTd4XDQXb4dDoeGfmdnJ03mcrk0JsNboSng8Xja29uxh4Rm7WOrIQABCECABEI9d2I/gAAEIAABCEAAAhDoHwHkzv5xxlogAAEIQAACEIBAqAsgd4b6HoDthwAEIAABCEAAAv0jgNzZP85YCwQgAAEIQAACEAh1AeTOUN8DsP0QgAAEIAABCECgfwSQO/vHGWuBAAQgAAEIQAACoS6A3BnqewC2HwIQgAAEIAABCPSPAHJn/zhjLRCAAAQgAAEIQCDUBZA7Q30PwPZDAAIQgAAEIACB/hFA7uwfZ6wFAhCAAAQgAAEIhLoAcmeo7wHYfghAAAIQgAAEINA/Asid/eOMtUAAAhCAAAQgAIFQF0DuDPU9ANsPAQhAAAIQgAAE+kcAubN/nLEWCEAAAhCAAAQgEOoCyJ2hvgdg+yEAAQhAAAIQgED/CCB39o8z1gIBCEAAAhCAAARCXQC5M9T3AGw/BCAAAQhAAAIQ6B8B5M7+ccZaIAABCEAAAhCAQKgLIHeG+h6A7YcABCAAAQhAAAL9I4Dc2T/OWAsEIAABCEAAAhAIdQHkzlDfA7D9EIAABCAAAQhAoH8EkDv7xxlrgQAEIAABCEAAAqEugNwZ6nsAth8CEIAABCAAAQj0jwByZ/84Yy0QgAAEIAABCEAg1AWQO0N9D8D2QwACEIAABCAAgf4RQO7sH2esBQIQgAAEIAABCIS6AHJnqO8B2H4IQAACEIAABCDQPwLInf3jjLVAAAIQgAAEIACBUBdA7gz1PQDbDwEIQAACEIAABPpHALmzf5yxFghAAAIQgAAEIBDqAsidob4HYPshAAEIQAACEIBA/wggd/aPM9YCAQhAAAIQgAAEQl0AuTPU9wBsPwQgAAEIQAACEOgfgWDMnVQm/A8BCEAAAhCAAAQgYDyBQGXcP/i5IOPJYosgAAEIQAACEIAABEQBP+Minz0wuZMvDgMQgAAEIAABCEAAAoYRoPQZqM1B7gyUJJYDAQhAAAIQgAAEjCaA3Gm0GsX2QAACEIAABCAAgeAUQO4MznpBqSAAAQhAAAIQgIDRBJA7jVaj2B4IQAACEIAABCAQnALIncFZLygVBCAAAQhAAAIQMJoAcqfRahTbAwEIQAACEIAABIJTALkzOOsFpYIABCAAAQhAAAJGE0DuNFqNYnsgAAEIQAACEIBAcAogdwZnvaBUEIAABCAAAQhAwGgCyJ1Gq1FsDwQgAAEIQAACEAhOAeTO4KwXlAoCEIAABCAAAQgYTQC502g1iu2BAAQgAAEIQAACwSmA3Bmc9YJSQQACEIAABCAAAaMJIHcarUaxPRCAAAQgAAEIQCA4BZA7g7NeUCoIQAACEIAABCBgNAHkTqPVKLYHAhCAAAQgAAEIBKcAcmdw1gtKBQEIQAACEIAABIwmgNxptBrF9kAAAhCAAAQgAIHgFEDuDM56QakgAAEIQAACEICA0QSQO41Wo9geCEAAAhCAAAQgEJwCyJ3BWS8oFQQgAAEIQAACEDCaAHKn0WoU2wMBCEAAAhCAAASCUwC5MzjrBaWCAAQgAAEIQAACRhNA7jRajWJ7IAABCEAAAhCAQHAKIHcGZ72gVBCAAAQgAAEIQMBoAsidRqtRbA8EIAABCEAAAhAITgHkzuCsF5QKAhCAAAQgAAEIGE0AudNoNYrtgQAEIAABCEAAAsEpgNwZnPWCUkEAAhCAAAQgAAGjCSB3Gq1GsT0QgAAEIAABCEAgOAWQOwNcL06ns6mpyePxSJbr8XiqqqpaW1sl4/v8sqqq6tixY/fu3evbEjweT2Vl5aZNm2w2W9+WgLl6FGhtbW1qavJ6vT1O6XA4qqur3W53j1NiAgj4L+B2uy9dunT48GF5S+X/wuVLqK6unjp1alVVVY+fBbfb3dbWZrfbe5xSvpZgHvPtt9/ev38/GEp4//79f/7zn2+++SZam2CojtAsQ+jmzvZHf5Ja37t3b46Ov+LiYrX2+syZM2az+Y033pBMsGvXLsZYdnZ2j592j8fzww8/SGaXlNPn82VlZUVGRl6+fFn+lp4xXq/3zTff1FkkPQvENHKBvLw8xtiOHTvkb/l8Po/H09jYuGfPnlGjRrFHf2+88YbT6VScGCMhEEABm832pz/9afDgwfX19QFcrOKimpubk5OTo6KiqqurFScQR16+fDkyMjItLc3hcIjjn+jhtra2lJSUYcOG3bx5s88bUlVVVar+V1VVpbbkgoICxlh5eTlN4HA4Xn31VcZYYWGhwcK9mgDGB5tAiObOurq6YcOGRUdHX7hwQaySrKwsSgDa/0dFRUlmpIV4vd7ly5ebzeYzZ86Ii/X5fA6HIy0tzWKxnD59WvKW+PKnn37Kzs5mjK1du1Y7oerJnS6Xq0X9r7q6Oj4+3mKxlJWVqU3V3t7eYwIWy49hLkBfNnFxcbdu3aKRHo/HZrOVlZWtXr06NTVV3McGDBgwf/78kydPulwuvgQMQOAxCXi9Xmpndu/e/ZhWQYt1OByTJk2yWCxHjhzRsyJD5s6SkhLG2JIlS6gtPXPmTLzm38yZM+Wdo9rfTVlZWWq8ktzp8/na29tTU1PDw8PPnTunNhfGQ+DxCYRo7vR6vYcPH7ZYLJGRkV988YXct6WlxW63i+MdDsfKlSsZYykpKWqdBA0NDTExMWPGjOnq6hLnpeGysjKz2Tx79uyHDx/K3+VjbDYbdYDx6FlUVCRvpsLCwhhjQ4YMkb9VVFRESysvLxfDTR+GExISWlpaeNkwoF/g4MGDjLHly5d7vd4zZ84MGjRI4h8REcEYW7x48d27d9HxoB8WU+oRaG9vHz9+vLxx4GMGDBjAGAsLC+Nj5AO8JdGzRsVpioqKGGM5OTnav6L5vAHJnS0tLQkJCYwxs9l88uRJvnDFAfp9SJ9NsVMwLS1N8oFljFkslueff764uFj/cQnqcQgPD+ddFT02y0uWLJEXNSsry2q1FhQUSDo933rrLcYYz51Op7OioqKyspL3F8hzp8/nq6qqioyMHD16tORrTr5ejIFAwAVCNHeSY1lZWVhYmDx6Xr16ddiwYYyxl19++cKFC263+9ixY0lJSYyxlStXqh0A8nq9GzduZIwVFRU5HA55D+LNmzc/+eSTmzdvyt+SnM9ER6b4oZA+586amhq1swbmz59vtVojIyMXLlyoNk1OTk5ubm5nZ2fAdzvDL9But48ePZqfCEHfNCNHjvzPf/7z5ZdftrS0eDye8+fPW63WlStXGl4DG9j/Aj3mTnnKlI/xM3feuXNn+PDhSUlJTU1NOgUCmzsZYxkZGTyBKZaBOiN15k6eRFNTU5ubmxUXKBlJ3Q28s1N8d8+ePYyxgoICPnLLli2MsUOHDvExfEDtABe1LTx3UuYWT1RQzJ38PCs/q5gXDwMQ0C8Q0rnT5/MdOXLEYrEMGjRIcqKk3W4vLCx85plnfsmRVquVMTZ69Oi6ujoNWersTElJaWtro486b6R6HBCbCVpFQ0NDcnKyxvEptWZIUkK32y2/tEXS6Hi93hMnTty4cYPPa7fb9X9V8LkwwAWom4d/2dB3g/gF4/P56CuWf2HweTEAAWMI7N69W5KretyugOfOqKio2tpatfW6XK6pU6fy9lne3yn5eHZ1de3evZuONfWYaPnpVdHR0fTd4fF4xCMb9DXBz/+mwqiddKvW4Pctd/p8PvELS80H4yHwOARCPXf6fL6ysrItW7YoHgZyu90lJSV0yOaZZ545dOiQ4mQ+n48nOWqn6uvrJUdDtF+Kh0V4NZeXl69evVqte1WtGeKz+3y+n376iU4hz8rKEk8YorTND37RMZc///nPd+/e9fl89+7de/HFF6njVlwahnUKUDeP1Wo9f/48zYLcqZMOkz0OgWvXrj3//PPy7kzFMfPnz1drc3pVtq6urjFjxojnN+uZPbC502w2awff2traqKgoOiIvufiGjrNLcidtAuXFYcOGNTY2am8UnWyzceNGipsHDx4cM2bMDz/8IC6Hh93GxsZhw4bJ+yBoYrUGv8+50/voagTG2PHjx7W3Au9CILACyJ2/89Q+d5v/LJa3ZefOnQsPDxfPs/ndcv1+ob8DlbditM779+/TRsXHx1+8eNHr9Z46dSoqKiomJubjjz8uLS3dvn17ZGRkdHT0pUuXfD4fP7t06dKlaiHb760x8gI8Hs/SpUsZY/wgu8/nU8yd9DUze/Zs7eOARsbCtvWLAIW56Ojo7OxsjZNqZs6caTab1XJPb0tKp5H0dvcOYO6MjIzMzMxkjKmdcO/z+eiOE//v0Z/+3EmbJn7AFXGampqSkpJSU1Pb29v51TxRUVFXrlyh6ZcsWSKu9Pjx44yxvLw8xaUFPHf6fD66+0p2drbYC6u4doyEQAAFkDt/hyk/dzszM1NyNjedxy0eM+3q6powYQKlUvH3sZ67Mm3btk3PJcyUO9966y3ebzphwgRJwaiRleROul/P3r17LRZLXFzcpUuXxowZIwZoxhi/xUlNTQ1d4f7uu+8iDP1uz9D9gvqS9eRO+ZlYuleCCSHQCwGdYU7nZDpXvGPHjl+uW9qzZ4/O6WkyKsPYsWMbGhrk58HTmB4bTPpkRUZGHj58eNiwYWpXF9ntdrqtxJYtW6h3kzeedDGQWj8CxTXt3Ol2u3NyciwWy6lTp+x2u81mW7VqFWNs69atPOSJUZLuMCAeJJG4UfeB/EJSumCRf+/IWxX67uCbJi6WbqeVmpqKq4tEFgw/bgHkzt8Jiw0BvVFQUCBpXyR9V/wI+x//+Eer1co//3SLTUnCk7+U9C5IDtDzO8PL2w7Fooq/nn+3YT7fN9988/333/t8voqKipKSktra2gsXLsTGxor3hHI6nTt37vz6668l8+KlTgG6IMxsNtP1avykYck+Q0tra2tLSkoaP358d3e3zuVjMgj0QUBnoNQ5mc4C0G94fqqJzrmoDPJ2UhyjGKHE5VP2oiPIGRkZdJdinvb4lCdPnjSbzXFxcVevXh0/frzYeGrkTt7g06n8fGmSAbpCSCw2Y2zChAn8Vid0Nie/6R6/rD4mJiY+Pn7YsGHTp08X7yWifSyOf+/0Knc6HI709HS1M0olW4SXEAiUQCjmTt6m8EaBd172ob/zwIEDFoslKSnp888/j4yM5J//vtWQ5Hg6j7z+5046yf3ixYtUMLpuKTo6+vz58xs3bpw9e3ZXV5fH4/n+++/13yKkb9to1Ln4ebE5OTnz58/ndcePs48cOVI8ypmdnR0dHR0eHp6ZmSmOr6mpMSoRtut/IqAnzPHGUPJLuG8F7nOgoaJaLJbhw4dnZWWJnws+3OMHhOfO8vJyHi75bXRpizweD0XS5cuX22w2OomfJ1r+HSFpz+12e25uLt1QSfuOpCdPnvy///u/xMTEefPm5ebmxsTE8MNKVAC+CrqjxTfffDN8+HA64zYmJuaXEPynP/1J8WFy8jsliXXUq9xJnSMRERH8e0FcFIYh8JgEkDt/bW/F3MnbX+0BPktVVVV0dPSRI0eoxZS0U72tNrG/c8KECTy7UO4sLk6Wo/oAACAASURBVC7mx57mzJkTERFx6tQpPobu4sSbTnHVdrs9Pz8/IiJi1KhRHR0dFy9ejI+PT0pKohuRHjlyxGq1btmyZd26dYyxX85J+vrrr+XdA+ICMSwXoMuzUlJSbDabpDea+ju19yj+rmINyleHMRDQKXDv3r1jx47xU3S0BxSvcdS5Ij4Zhao+3P2XWlE/s6+YO+nypl8+XJI75NMVRdTdKE5Pm8BDIf9UigNDhgw5ceKEdgv5y3nedKoSv7+e5PlAfKXyflNCUDs1Vp4sObvP55O/K++zEKdfv3692NErvoVhCDwmgVDMnSKl5ACoJC74fL4ej7N7PJ7Lly97vV557tQ+MkINmUYLKxZG0g8qNoKSYUlquXPnzrJlyywWC2NsxowZdXV1+/btCwsLGzx48K5du/bu3bt06dJFixZFRUWFh4dXVlaWlJTQ3aM07lQqAmKYC3i93ry8PLo8S6w73t/5S78y/5FAA3PmzAkPD6+oqBDH93j6Gl8jBiCgIeDxeNrb28Vdq1fD/ty4N3hyJ7Xh8quL6B5PdMkRj4C88dTOnXRb0Hv37mng87fohO/p06dLjiPV19cPHjyYWu+DBw/y6XmB1U6NpRkzMzMVg29vc6d2KhVLhWEIBEoAufPXJ/rwzktJXNCTO3lNyHOnn9cViYURb0R/586dOXPmUIM1aNCgkpIS8etETC3btm2jyUaPHv399997vd5Dhw5JcuovtykeNGhQXFycxWKhx1fYbLb09HTtJzPxrcaAooBYdzx38t2Mz4JGn1NgIOACPE7JP/J6xvhz6Caocid1bYpPDJJ0gnIoee6UILjd7lOnTsXHxzPGJk2a1OMNp6qrq6OiopKTk5se/e3Zs+ell166evUqv5Z8ypQpcXFx4hX3ivef6rHfgXct9zZ30jX1FRUVAd/9sEAIqAkgd0pzp9lsnjlzJj+XaOTIkZIxkyZNEqMql5XnTv5W3wYk2YUW4vV69+/fT/2X/LZzmzZtkvyYpombmpoyMjKqqqr4L+Pm5ua8vLySkpLq6upbj/54r0ZRUdGoUaPo3nJutzsvL+/Pf/4zXYrUt/KH8lySupN0q3OZsrIyxX2JT4ABCPRZgCLIc889d/DgQe1j65J3JY9e7EMBPB7P7Nmz+WlC+pdArajGUSA9i5LkSPFUTmoJJSd9Sqbn93tXu56dzqhhjJWUlGiUhz927rnnnqOnktLNQ+ip6PSwoj179tC9nHiXJ5WNP3KCll9RUcG/kugLiJ8snpmZGR4e3rfc6fV6MzMz+1BNGluNtyDQowBypzR36ukJUMwKktyp8yBXe3u72h2LJNmF7k5PoTM9PX3atGmRkZEnTpyYMWMGYyw9Pb21tbXH+hYnoDAk+UHPJ/B6vWoF49NgQE1AUndquZNuBKhWBWoLx3gI6BGQd33pmYt3z/u5W9KJg73tSHscudPn84lB0/vf+6Xz+1b2NnfSVVOMMcUHqRPy5cuXU1JS+LdJUlJSYWEhf3SceNck/twgm81G/cRi16y8yiiwlpWV0VtUeH4vJHmlaxxU6ejoGDVqVFxcnOIFTPJVYwwEAiKA3CnNnZIffz2e38mrQZI7eVvGmx7FAf47lS+HD0iyi9vtzs/PZ4yNGjVKvHKFj6c7w/PZvV6v3W4XD8FLhouLixljc+bMkYwXX7a1teHu8ZxU/4Ck7tRyJ906HrdS0g+LKfULSCII7YSKrRCN5OeBaP8i1VkA6stfv369zulpsseUO/ldikpKSm7duhUXFyfe1JO31T0eZ+fbQufua0Tz8+fPh4eHP/fcc3v27Glra+Mz0gDdOpRfsU7R8M033/zggw8ozmr85l+5cqV4BbqkliUv+dmifNPEktCpounp6T2eMCDOhWEI+CmA3Pl4c+eECRMkx7DElxMmTNCZO/k5lxQ66f4XPCJ7vd7PP/+c7hn5xRdf0D7R46nxGt9A/C2+Cj/3s1CbXWfupDriD9xDH3Oo7SePdXslEYTSZGZmptgE0XBBQQE9hILKE5DcSb+pxDMX9WzsY8qd/NFEU6ZMKSwslFxm1NvcyZtWjdzpdDrpscPiVns8nmvXrjU2Nkoe5mS320ePHk3nTcXExDQ0NIhzicPUQ8l7N30+n+Tpmu3t7ePHjxcfdqrR30kXV/HfG+KKMAyBxyeA3Kk3d9psti+//LK5uZluCCz/rCr2d2o0TJQde8yd1dXVmzdvphM6s7Oz+Q9TSbKhE9WjoqImTpxID59wuVzbtm3jZwXJB+g8ocTERPlbfMyqVauampoe3/5n1CVLaoe+yPk+Y7fbV61aVVpa6vP5Vq5cKT4iecOGDbiJlVH3in7eLsXcyXdCsTDUdvG3ApI76axKsVtRXKPa8OPLnfxR7NSWirdV6m3u5E9FVrvkXL51d+7c2bJly5AhQxhj69evp3M6xdm/+uorq9XKGPvoo4/ks/MxdMIAP0PA5/ORmNpNlzT6Oyk9//KVUVtby5ePAQj0g0BI586mpqbJkyfTkWtKV5K4IF7PTj8rqSMwOjqarkkUayiwufPGjRujRo2yWq1lZWVNTU3jxo07fPgwvzxI0t/Ji3Hjxg39Z3kG5NuFrxoDooBkR5LkTrfbPXfuXLp7AH2RZGRkeDwe+ibQ/q0irgXDENAQUMyd8pt5tbS0nDp1KiIiIrC50+fznT592mKxzJ07V/+5Oo8vd9KlTtSAS57Qoz93ulyugwcP0p3m6E69Gv4+n89ut+/Zs+e5556j9UZERKxZs+bixYspKSliGVpbW/mTlvltleVLdjqd06dPl0R5eminRqOh1t8ptjzydWEMBB6fQOjmzjNnzkRFRYWFhc2aNSshISEsLKywsLClpUXtjEZ+uqTaBIHKnU6nc9OmTfxIN2Ns6dKl4gPTaG9YvXr1888/f+3atT7vHMidfabrcUaN3OnxeO7evfvFF19YrdaioiI684zOZ7DZbHFxcfzrv8e1YAIIaAgo5k6xYZEM8x0vUC0D5SSLxXL8+HGNcopvPb7c6fP5SkpKaJPpZx5fr0bulBDxl/Hx8dqPTbp8+fLYsWP59KNHjy4vL6f8XVRURHcApZM46+vr6QqkefPm/fOf//zlMvno6OgLFy7w4tGA1+ulMwQktwKlW+Nt2bJFMj1/qZg76ch+eHg4XVzPJ8YABPpBIERzZ1lZWVhYWHR0NN3l+/79+3SeeERExKJFiw4dOlRZWSleXtPS0kLH2el0KLrd+vvvvy+e/a2YO7WPYicmJkqOs3d1ddG9OUeNGtXU1OR2u7dt2xYWFsYYS0tL++CDD7788kubzSYpW0tLS21tLS/b1q1b+eF4jX0oUN8uGqsI2bckuZPOoxo5cuRf//pXi8USFxd38+bNKVOm0Nlv9MWQlJSUkZFhsVjOnDkTsm7Y8AAKKOZOxf5Oak94oxHAluHKlSt0A8vm5mbaNH5yJM9kfRjQPu9cniNp1fQbT9JfyJ/xIz62R6OQdGX6/fv3tWvq4sWLERERQ4YMKSwspBOfaPqmpqakpCQKfB6Ph57iwRh74403nE6n2+1eu3YtPYezoKCA3x2P3z5P8rBNOnLyyz2YDx06pFYeOjFMvK7I6/Vu3bqVMfbmm2+Kx9DUloDxEAisQCjmTofD8fLLL0s+wF6vt6qq6uWXX9bfCIpn5/DzbPjxDt72aS9QkjsPHjxoNpvT09O7urp4Td+4cWP27Nn8np3aC2SM0QN/+exqAwH8dlFbRciOF3PnN998w+/eZ7FYJk+eXFpa6nQ6S0pKfnkO9cmTJ7u6uuhG/ZLLHUJWDxseEAFJ7qypqcnJydG4sdHNmzdXrFiRk5NDZ35r3CSoV8Xbvn07Yyw7O5t6+xwOx/z58+lB5H3+389DPb0qf98mdjqddXV1YseEz+fjMXHJkiXffffd8OHDGWNhYWG7du3iU3q93uLiYuprSE1Ntdlsdrt97ty5jLHIyEi6bNRut48YMYJ/Efzxj3+8ceMGL6fH43nzzTfJlh4IQo8D5RPQI5Qk3zL8XQxA4HELhGLu9Pl8zc3NdFWH3Nftdotdm/JrP0tLS6urq1taWsQnA6nlTh5D5StSvK7I7XYXFRUpnqPpdrtv3rx59OjRDz74gF/3QwOFhYW8nEePHpUflFdcO3KnIktARoq50263jx07Nisr67vvvhNPdLPb7Z988gn1hbS2tr722mujRo3SPngXkLJhISEiIMmdPW610+l89dVXKa9MmzaNHiHR41w9TuB2u3Nychhjmzdv5umqx7kMOYHX6/3666/T09PpWFZeXt6YMWPq6urkG/vDDz9MmDDhyJEj9Nbhw4f//Oc/X7x4kU+5evVqqqnx48d/++23fDwNHD9+nKfSAQMGrF+/nrc8dXV1w4YN6/E8AckC8RICARQI0dwZQEG+qF9+y7a1tfHH//DxGAhxAdwdKcR3AGy+w+G4fv06Dun2eU8IbBtCp431uTCYEQJ+CiB3+gmI2SEAAQhAAAIQgAAEdAkgd+piwkQQgAAEIAABCEAAAn4KIHf6CYjZIQABCEAAAhCAAAR0CSB36mLCRBCAAAQgAAEIQAACfgogd/oJiNkhAAEIQAACEIAABHQJIHfqYsJEEIAABCAAAQhAAAJ+CiB3+gmI2SEAAQhAAAIQgAAEdAkgd+piwkQQgAAEIAABCEAAAn4KIHf6CYjZIQABCEAAAhCAAAR0CSB36mLCRBCAAAQgAAEIQAACfgogd/oJiNkhAAEIQAACEIAABHQJIHfqYsJEEIAABCAAAQhAAAJ+CiB3+gmI2SEAAQhAAAIQgAAEdAkgd+piwkQQgAAEIAABCEAAAn4KIHf6CYjZIQABCEAAAhCAAAR0CSB36mLCRBCAAAQgAAEIQAACfgogd/oJiNkhAAEIQAACEIAABHQJIHfqYsJEEIAABCAAAQhAAAJ+CiB3+gmI2SEAAQhAAAIQgAAEdAkgd+piwkQQgAAEIAABCEAAAn4KIHf6CYjZIQABCEAAAhCAAAR0CSB36mLCRBCAAAQgAAEIQAACfgogd/oJiNkhAAEIQAACEIAABHQJIHfqYsJEEIAABCAAAQhAAAJ+CiB3+gmI2SEAAQhAAAIQgAAEdAkgd+piwkQQgAAEIAABCEAAAn4KIHf6CYjZIQABCEAAAhCAAAR0CSB36mLCRBCAAAQgAAEIQAACfgogd/oJiNkhAAEIQAACEIAABHQJIHfqYsJEEIAABCAAAQhAAAJ+CiB3+gmI2SEAAQhAAAIQgAAEdAkgd+piwkQQgAAEIAABCEAAAn4KIHf6CYjZIQABCEAAAhCAAAR0CQRj7qQy4X8IQAACEIAABCAAAeMJ6IqoOib6g45ptCYxniy2CAIQgAAEIAABCEBAFNDKgr15LzC504U/CEAAAhCAAAQgAAHDCVD67E221JoWudNwOwg2CAIQgAAEIAABCARIALkzQJBYDAQgAAEIQAACEICApgBypyYP3oQABCAAAQhAAAIQCJAAcmeAILEYCEAAAhCAAAQgAAFNAeROTR68CQEIQAACEIAABCAQIAHkzgBBYjEQgAAEIAABCEAAApoCyJ2aPHgTAhCAAAQgAAEIQCBAAsidAYLEYiAAAQhAAAIQgAAENAWQOzV58CYEIAABCEAAAhCAQIAEkDsDBInFQAACEIAABCAAAQhoCiB3avLgTQhAAAIQgAAEIACBAAkgdwYIEouBAAQgAAEIQAACENAUQO7U5MGbEIAABCAAAQhAAAIBEkDuDBAkFgMBCEAAAhCAAAQgoCmA3KnJgzchAAEIQAACEIAABAIkgNwZIEgsBgIQgAAEIAABCEBAUwC5U5MHb0IAAhCAAAQgAAEIBEgAuTNAkFgMBCAAAQhAAAIQgICmAHKnJg/ehAAEIAABCEAAAhAIkAByZ4AgsRgIQAACEIAABCAAAU0B5E5NHrwJAQhAAAIQgAAEIBAgAeTOAEFiMRCAAAQgAAEIQAACmgLInZo8eBMCEIAABCAAAQhAIEACyJ0BgsRiIAABCEAAAhCAAAQ0BZA7NXnwJgQgAAEIQAACEIBAgASQOwMEicVAAAIQgAAEIAABCGgKIHdq8uBNCEAAAhCAAAQgAIEACSB3BggSi4EABCAAAQhAAAIQ0BRA7tTkwZsQgAAEIAABCEAAAgESQO4MECQWAwEIQAACEIAABCCgKYDcqcBTU1NTXFxcX1+v8B5GQUCHQGtra3l5+a1bt5xOp+LkTqfz4sWLn376qdoEinPxkd3d3d9+++2BAwccDgcf2eeB1tbWtWvXvvnmm7dv3+7bQjo6Oo4dO3b27NkeZ7fb7eXl5Xfv3u1xSn8mqK+v73Fbbty4sWzZsqKiIn9WhHm1BZxOZ0B2Ue210LtVVVWLFy8+duyYnom1p9Fe1NmzZz///PPHvQ9rlxDvQuDJFUDuVKi7/Px8k8l05MgRhfcwCgI6BKqrqwcMGDB58uTOzk7FyX/44YekpKSBAwd+9913ihNoj2xsbIyPjx80aFBNTY32lHrebWpqinv019TUpGd6yqliYqMlLFiwQG327u7ub775ZuHChVar1WQyjRgxorGxUW1iP8d3dHS89NJLQ4cOlfx0bG9vP3jwoN1up+VfuHAhIiJCLPNnn31WVFTEJ/CzGKE5e2tra21t7aeffrp69epRo0aZzeZFixb1T/Q8cuSIyWTKz8/3X157UQsWLIiIiLhw4YLL5bp27do//vGPgHwM/S82lgCBJ0IAuVOhmtatW9eH3Llr167Y3v+lpqZeunRJoRAY9SQL0PfWunXrNDZi3759JpNp1qxZ3d3dGpMpvuV0OhcuXGgymXbu3Kk4Qa9G9jZ38pTZ2Nj4r3/9q7GxkY9xuVxffPHFihUrmpubnU7nrVu3ioqK0tLSzGaz6dGf1WpduHDhlStXeEfvpUuXUlNTe//R+W2OcePG3blzR9zeysrKsLCwuXPninHH6XS+/fbbJpOpoKCAJpbkzra2ttGjRw8ePPjKlSvi0owxTBVEVaD2P89Sapvc2tra1NTU2Nh44sSJTz/9tLi4ePXq1YsXL544cWJsbGxUVJTikkeMGHHt2jXJMv2p9BUrVkiWRi8lYdHhcHz55Zef6viTd15KFiVZnZg7KyoqBg4cGBsbW1VVJZkMLyEAAUUB5E4FlgULFvQhd1IvqWLLqzGyx7ZeLF9HR8fHH3+cmppK3+Jmszk1NfXjjz/u6OgQJ3O5XGqFsVqt48aNO3r0qPiVbLfbJ0yYoNFVwL+0AtKXICmqYV6K33Pz5s0zmUwrVqygbz35F5vL5WpraxszZszf//53SWwikDt37owbN04jjUVGRppMJqvVqjHNrl279PBS/cbFxens7+Qpk7pd33vvPT7G6XS+8cYbzz777O3bt+lzRDt/SkrKunXrampqxB2Pykb5T+Mzov2WpNjd3d2zZs1ijG3YsEGMHDU1NTabbeTIkUOHDq2rq3O5XJLcST8DcnNzeSDWQ/ekTMM/wkOHDpXvMDExMWazuce2aP/+/dp1ERUVlZycvGDBgs2bN584caKpqUle3f5XuthFLfpLwiJv1rTLbDKZ5BsuWZS4FrvdPnHiRHGWo0ePRkREJCUl/fDDD+KUGIYABBQFkDsVWPzJnR9//HHT7/9yc3NNJpN8fFNT08yZM8X2S6EowqiqqqrExETFNvTZZ5+VHOhRy5189okTJzY3N9PieQOtFiv5l5baBEIxQ3eQM3JkPkC1LO8RHzBgQExMjJgDeP93j7lTnEtt+HHnTofD8Y9Hfw0NDXFxcQsWLLh9+/azzz67YcMGl8u1YMECi8VSVlbWqw5d2tkkaVLcUbU/MqWlpbxvlfvz31TFxcUmk2n58uVOp1PMnXfu3ElJSXn22Wcf39H//+0HQ0PV5XLRrqsN63K5bty4sWbNmv379/NAf/ny5aamptu3b8+ZM6dXv9W7u7tv3779+5by11d1dXV//etfn3rqqfLycvm7NKa1tVURUxIWOzs7t2zZslj298ILL5hMphdeeIG/s2zZshs3bojLlCxKfEvRqqSkxGw2T5w4sa2tTZwYwxCAgFwAuVNu8uv3pclkevHFF3nDJB8QT26jRaidFao2nr6Ye2zraeHV1dWDBw82mUyxsbGHDx+mswY7OzsPHz4cGxtrMpkkv7ZppfIvb5vN9vbbb9MX88svv0wdpTwwqcVK5E6FvUQ2ivd3vvPOO0899dSIESOKi4vF/s4efwwodr3I1tPHEX52K4r7Bu0P1O1UWFiYmJj43XffUe4sLS0dNGjQ5cuXe7V7i5ukkZAUv/LFeflZs++++y7PRjRAP8zoYHpMTMz169d57nQ6nbm5uYyxAwcOiEsz0rCGqv7c6XK5Ojs7P//8c/lJyYq/1dva2saPH5+eni75VawB22MVS+ZtbGzkFb1mzRqTyTRv3jwac+zYMfmBIH4sSNyfaZl0bRzNK1mUWH4qoeTUaqfTmZ+fX1xcbMjOcok5XkLATwHkTgVA8fig2GUiDsuP9ajlS7Xx+r+YOzo6Xn75ZXm4pKJfuXKFIil1MtFItdxJ79IhRcbY8ePH+bcO7xOSiyB3yk00xlRUVDDG5F9sfBbqIuIvXS5XY2OjxuUsvToZbs6cOYqLeky5s6KiIjExsby8PC4ubt68eQsXLuTXkYinwYkbqz2skZC0Q4ndbp80aZLJZNq8ebPG1//+/fv37dvX2dnJc6fD4aisrCwoKOhVv6z2VgTbuxqqvAXQ8xv47NmzERERo0ePlnTsKeZOOtGWTrrQCUJVHBMTo7PjmTomxZaZD8t/dVMZqG2Ufzx5K8eXwAfy8vL4qaL79u1LTk4eOHDg+++/zyOvOKCz5DpBMBkEjCeA3KlQp4ptqMJ0vx+lli/VxuvPnZRjeEz8/Wp/fUUXQqWkpNhsNnpXO3e2tLSMGDHCZDItWrSIf+sgd8ph+zZm3bp1YWFhlZWVRUVFa9eulRwWpF8RTz311Llz52j5J06csFqtixcvVss9lJAGDx68cOFCedc7H/PKK68wxiZMmKCRO+W/l1wul3YokX9P0/S0KIfD4XQ6+RiHw8G3op9zJ3VbajDa7Xbx0G15eflTTz01c+ZMcaSksvq2AwThXNpVrB3oxc35pX4XLVpkMpmKi4vF8fI2k0/Zq0vftMsprpGG6YZH9BF48cUXxQPo8o8ezSLfn2m8Rn/nuXPn6Ax4nkQ1BnAjFHk1YQwERAHkTlHjt2F5G6owkWwUNWdRUVGSk+3o+g/5+NjYWKvVqqePYenSpXTrmZaWFtlqfx1BwVRclHbudDqddOHLxIkT7Y/+cF2RImwfRlKmpw6hBQsWyDtdDhw4wBjjnYIul8vhcOTk5JhMJrXTMSl3qgVKXkjtyXj3Hp+eD2h/2cu/p3nKXLFiBe3tQ4cOlVzktGvXrn7OnS6X6969e4cOHZJnAqoF2hD5u+IYxVzOoZ7cAe0q1p87XS4X9WJK9kZ5m3n58uWBAwempKQoXjanJtnY2BgTEzNu3Lgff/xRbRq18RonZYqzyPdn8V0aliyKn0Lz6aefvv/++wMHDkxOTt63b5/YzcmH0d8p98QYCIgCyJ2ixm/D8jZUYSLZKD3fauI3HA2LYVG2yF9H0OWTvG9ScRr5SCqMPPTwKWkbkTs5SKAGvvrqK4vFwi+skVQBnYDIL6nmK6XrWtRu56kdKPlCtCd7rLkzOjpaMXfKd3g+Rn6gkzZEIyHpiUcVFRUUhelGoXT5Nt1riT4UaudtU28xciffndQG6PaojLGKigo+jaTNpNsamEymffv28WlowOl02mw2sY9ZHKZO6L///e/Xr18Xx0uGb9++zbvV+fIlYZGPlwz0IXeKS6ivrx86dKgkdosTYBgCENAWQO5U8JG0oQpTKI2i5kx+kEVtvM7j7DabLSUlReMguFJZfruPkiT08ClxnJ1TBHaAvm4HDhzIL6wRq6C7u3vx4sVq/ZpffPGF2Wx+8cUX5UfJKTLyxKY9oPaN+DhyJ9fbuXOn/Pxj+hxFR0eLfaJms5ku4Vfr3PUzd/IiyTubNT6J8tsq8eUYY0BDlZ9p0+NvYE5BtwVYunQpHyNpM2lnU9yZ6ceD9j7c47uKRe2f3Mk/R8eOHVu8eDFu28n3AQxAQKcAcqcClKQNVZhCaZTat5raeJ25k74wAps76VAvP0mLfxNod0H1tgxKSAYfd+7cuYGP/l599dXFixcnJCSEhYXNmzdv2bJl169f37x5s8lkGjly5O7du8WHBdhstm3btn377bevvfaaYhfR3bt3P//8c34gT3vgyy+/VLxpIv++lNeBdiihHVjcN2h63jVInbWUFdLS0vjzAyXH2WkuSSyWXzJFh+xNJpP8TpN0m0mTycSzLCVaxUupkDvFitauYj0dyZKlffbZZ+3t7fz6LUmb2dXVdfbsWfnt4umKeMXbG9E5mn/5y19MJlNqaipjTOOEZvmdj1wul5g7b9++/cknn0jujkSbIN+fxU2jYXFR3d3d9fX1/DNFb23atEmjYZcvEGMgAAEuENK5U+0WiXSETvGMzNjYWLWnZdDp9gHv76QvjN5mPmoTxc42qvK2tradO3fSBo4cOZKuQ0Lu5J8HPwfoRFt5bw11z5w7d27s2LHFxcVhYWFvvPEG/86muZYuXVpXVzdjxgz+vJxf7o55584dyRFG/S8ll8g8vtyZn5/PGDOZTKNHj05KSuJ3MdSTO6lUcrFejZFkWapEtdwZmsfZ6cGtilB6+jvF2xUp/uz529/+ZjKZ1qxZo/gujTx79qz256uzs3Py5MkWi6WwsDAiIkKttGoLoUSYmJg4ZMgQk8lksVi++uor+cT6c+ff//53uv4yMTHx9u3btKhNmzaZTKbDhw8jd8ptMQYCegRCOnfySNerLznezSPxpV/8x44dk4zXaJ4kX8ySGeklL6TY4aQ4pTiSVqqxXeKt5pE79Jj3tQAAIABJREFURTp/hltbW6uqqng0nDlz5rBhw6qrq/npaA6Hg7TpFpIul4sOzUvOlqMy8KrXqEeNtyQ7KiU8yeXbVNTq6uphj/6qq6t54fkAPfhA3P2oYLR8uo1XVlYW3b+TbqBNF5VLdm+aSxIm5PcPpzP8xo0bV19fz8tAA2o3FbfZbBTi+cmddNGe2Gm6YsWKHj8UJpNJgubPzhBU854/f/6pp56i87nlBeuxv5MincbOpuetHm1ramoGDRqUkpJy/PhxnbnT4XDU19e/9957FBB5MUaMGFFUVNTe3i7fWNoNxP2ZT9PW1nbkyJE5c+bQxaC0tOTk5G3bttGtQOlBCU899dT58+c1Gna+QAxAAAJyAeTOOMkXodyIj6HGV631XLBgAWPslVdeoQNG/H96PIZiL0tCQoLiiUp8jS6Xy5/zO3krzAcUH62J3CmCB3BY3uVGC6fT4+jao+vXr8fExMhviMhvb6Rx5axa3xLd9Vqyo/rZsyh+T/Pc2dbWNnHixGefffbcuXOUO51O5/LlyxMTE+vr6/XkTrm2xqfMn3i0YMEC7aCg0R8sL+QTN+bw4cMa1yb2CCveroi3bOJAQkJCH561IWGks4SXLl1KdaGnZaaPEm/f6OG09FgNycL5S7XcSRcMiYvKycmR3KaUHgxLd6zT3p346jAAAQhIBJA7A5M76QiR2GbpHO4xdz6m69nF/QC5U9QI4LBa7qQTIocOHVpbW0u9iYoX2Sh2EOopnmJ0o+/yhIQEMS7Q8Lx588Ie/c2bN0/+Lv1wkufOOXPmLF68mB7zw5MoPXf+5s2b1DM0dOjQ+vp6KrPOzaGb0RYWFsq3tMd4JM4ix9cOCsbOnXQvtvfee08k4sO9guVziQOS8zvFt3QO04eCbnyrP3fW19ePHj16zZo1NTU1n332mZ7zkdRyZ2dn5y8/1V577bVvvvmmpKREcVF0SszChQvpAUW9ejSoTgdMBgHDCyB3BiZ30hXidFBVcnCQgoU/z2cP+P07Jbs1z53r1q2TvEUvKTGYTCbFNKA4C0bSdWMDBw7csWPH66+/Lj5NyuVy0SOjXnjhhYEDB/ITbSVokqDW47FOHg01cqekE1SsX/nZwPSu/HuaCkZPZqdD6jRGXDjtVOIyJZsj2Vh6Sc+xVDzrQM9piOIy1XKn4iexqamJju+LmyAu7YkeptZJ7XxHNVjtXkMJiJ+50+l0vv322yaTadasWd3d3fpzp1gM2u35p0B8SxyW78/iuzSsuCh+cyi6Z772zxj5MjEGAhAgAeTOwOROOjNJ8fQpjeZJciBSbaekH9kBfF6RZEX8NvIvvfSS4hON6Z6UamlAsrSQfdnd3X3y5MnNmzfPnj07ISHBbDaLfd6SQMOffWo2m0tLSxXRJEGNvgv546fFg+z5+fkWi4V/4yrmTjqTUnKxEa2XViRmRLE89Jgf8e5OPGXevHmTDkTyMXzG27dvJyYmiodKJZvDpxQHzpw5ExYWJj55S3y3V91yarlTrBT5sKSaxLU/ucOkOmLECLUHTyjCLly4MCsrS+dd3/3MnXQjCH7wRzt3Xrt2Tdwbeb0ohkX+Lh/oc+6sq6sbOnRofHw83Rle3rCLD+viq8MABCAgEUDuDEzuLC0tNZlM4g3tOLS8eeJv6cydPKMkJSX98MMPfHYaoNbQZDKJPWq0UrUkIVmCy+Wi06TMZnNJSYnk3e7u7oULF5pMpt4+ekSyHMO/5GdEUJqJjIy0Wq2/3FXpwIEDd+7c4VevkwO/l+fAgQMrKysVcSRBTeNrlb6ntXOn4ipoJK1I/94iT5nyMXQB9bx58/iGSzZHXh6+n4t7sjiZYjwSJxCHxdxJD/OkD4XaNdeU3Y2XO7u7u2fNmiVpH0Qotf5Ona0TLcqf3EkPUzCZTJs3b6a9RTt35ufnm83mEydOSLZC4wMiTkm7Af+wiG/xYfmi6CmsIqO8YW9qavrLX/6ybds2vhwMQAACcgHkzgDkTqfTSclMseNK3jzxatDfslN/gMlkSkxMLC8vp2d1dHZ2Hj58ODY21mQyPfvss+Lz2Wil+pOE3W6npxtbrdb8/Hy6v5LD4bh06dLkyZNNJpNiJOUbggES2L9/f3FxcW1tLR2jFKOPSNTd3b1q1SqTyRQVFWU2mwcOHCg++oVPKQlq9F2Ym5srOZGDHyPmX6U0pf4IRSvSv7fQ9IqXxlPZbDYbnSG3adMmtc3h42nA6XTS/U0TExMVb7uoFo8ky+EvCb+xsbG4uDg1NbWmpkbjk2jg+8bTHQbkj8jiUIqwdML6oEGDampqxCnVhvucO2tqahITE00mE52wQcvXzp10BrD8jnXysKhYWtoN+IdFcRr5os6ePRsRESEyyncnOuql/3OnuGqMhIDhBZA74/RfL6x4mbDL5ZIcf5HsNPLmiU+gP3e6XK7z589TxJQfHBwxYoTkq5pWqj9JuFyu5ubmiRMnyhdOzz/8+OOPeccVLz8GtAUUc2d7e/u8efNMJtOIESMaGhp27txpNputVuuePXv4valpsYq5U7GCaCT/Ku2f3KlRkgkTJrz66quSEzMkmyOho3ikeNt8PqX+/k6KTWazOSoqymQyDRw48Ntvv9X4JBo1d/KuxIKCAs4oH5DD/vjjj+PGjRPvWymfSxzTh9zpdDrLysqefvppk8k0adIk8cpx6ixXPDGArlfjR+TFMsjDovguH6bdgH9Y+HhxQLKou3fvjhs3zmQyiYzy3YnisvhbS1wmhiEAARJA7ozT+PpUfEvyc5ZuHGMymXJzcxWTmbx5Ino6q1KxAVXbO+12+86dO+mxmRQHR48e/cknn8hPyqSV9ip3ulwuh8Nx9OjRl156id++Lj4+/q233mpqalIrEsZrCEhyp9PpPHXqFPXupKen03N9nE7nhx9+SCeDzpgx4/r163yBkqBG34WK/Z3Uy8hPenvcubOjo+PYsWPiCaaS4eLi4sTERH4mHG2RZHP4ZooCOTk58udu8ynl8Yi/JRngKdZqtW7evJk+IGqfRJqXQoPk0y1Z7JP18ocffqC2gt/JX638dIoIY+zNN9+kqszLyzObzZMnT9ZzdRE/QVzeB6m2xu+//37atGnUwK5YsULSgtGuYjably5dKtm11q5dazabFc8A/vDDDxUvQqcTlPlRghUrVihOJhaVbjtF2fTu3btpaWkmk+nll18Wy7l//36TyTRt2jRewtdff91kMu3fv19cFIYhAAGJAHKnv/2dPR7GEr/tKisrw8LCrFYrD3ZDhgz5/vvvJbWCl8YQEHNnY2PjK6+8Qmcs5Ofni19gLpfr9OnTlEcZYx988AFtviSo0T0U5Q8m4Fa1tbVLly5dvHgxnTKxaNEi/pb2AK2ot79SNJZJpwuLz2TityMVrzRyuVwtLS1z586l/LFq1SqN0Kl4OFixDPyM5KVLl9IZIzSZ+EnkM27cuDE6Opo/nFPt1FI+/ZMycO3aNbqn5ogRI8QzcNTKv2HDBvnP7H379ilOT8dG6CGlsbGx0dHRJpNJ0r2tOCPV+PTp02ldTz/9dFlZmfznusPhyMnJkZeHj+FngvJz0/lbdLG5uPbLly8PHDiQT0AD8slcLteBAweGDh3KH8daXFzc1dWVmZlpMpn+9re/NTc3i4v97rvv5IuVnO8kTo9hCECABJA7e3F+Jz0NRfKczObm5hdffFF+OQ7fw3bt2hUbG0sn8Nnt9mnTpjHG6NnT48aNO336tLzZ5fNi4IkWEHOnw+HIz88fO3YsfwymZNM6Ojo2b968fPlynr0kuVMyvfxlR0dHRkYGpYEpU6YoPh1bPhdPhAHMndevX582bZrkeim1zamsrIyJiZGfZiAvqv7+ztra2srKSsknSzF3VldXp6SkxMbGJicnr1+/XvEJN/KSBP8Yp9O5c+fOyZMnS9KSWskdDsdXX33Fu+4+/fTT6upqCaA4rySnDhkypKCggO+64pTy4bNnzyYnJ+/YsUPy60uc0uFw1NTUiOXhw9euXRML1tTUNGbMmNjY2IkTJxYXF8vLIH4uYmNjR48erTgZfRBoUc8//zzvJu/o6Ni9ezcdnRBL6HK5GhoaPvvsM16wzz77DIeGJER4CQG5QEjnTjlH38bQ1bJ9mxdzQcCQAr36UEhObDUkCDYKAhCAAAToB1tDQ4MvQH9/8HM5lIJRMRCAAAQgAAEIQAACxhNAf6fx6hRbBAEIQAACEIAABIJRALkzGGsFZYIABCAAAQhAAALGE0DuNF6dYosgAAEIQAACEIBAMAogdwZjraBMEIAABCAAAQhAwHgCyJ3Gq1NsEQQgAAEIQAACEAhGAeTOYKwVlAkCEIAABCAAAQgYTwC503h1ii2CAAQgAAEIQAACwSiA3BmMtYIyQQACEIAABCAAAeMJIHcar06xRRCAAAQgAAEIQCAYBZA7g7FWUCYIQAACEIAABCBgPAHkTuPVKbYIAhCAAAQgAAEIBKMAcmcw1grKBAEIQAACEIAABIwngNxpvDrFFkEAAhCAAAQgAIFgFEDuDMZaQZkgAAEIQAACEICA8QSQO41Xp9giCEAAAhCAAAQgEIwCyJ3BWCsoEwQgAAEIQAACEDCeAHKn8eoUWwQBCEAAAhCAAASCUQC5MxhrBWWCAAQgAAEIQAACxhNA7jRenWKLIAABCEAAAhCAQDAKIHcGY62gTBCAAAQgAAEIQMB4AsidxqtTbBEEIAABCEAAAhAIRgHkzmCsFZQJAhCAAAQgAAEIGE8AudN4dYotggAEIAABCEAAAsEogNwZjLWCMkEAAhCAAAQgAAHjCSB3Gq9OsUUQgAAEIAABCEAgGAWQO4OxVlAmCEAAAhCAAAQgYDwB5E7j1Sm2CAIQgAAEIAABCASjAHJnMNYKygQBCEAAAhCAAASMJ4Dcabw6xRZBAAIQgAAEIACBYBRA7gzGWkGZIAABCEAAAhCAgPEEkDuNV6fYIghAAAIQgAAEIBCMAsGYO6lM+B8CEIAABCAAAQhAwHgCvgD9/cHP5RhPFlsEAQhAAAIQgAAEICAK+BkX+eyByZ18cRiAAAQgAAEIQAACEDCMAKXPQG0OcmegJLEcCEAAAhCAAAQgYDQB5E6j1Si2BwIQgAAEIAABCASnAHJncNYLSgUBCEAAAhCAAASMJoDcabQaxfZAAAIQgAAEIACB4BRA7gzOekGpIAABCEAAAhCAgNEEkDuNVqPYHghAAAIQgAAEIBCcAsidwVkvKBUEIAABCEAAAhAwmgByp9FqFNsDAQhAAAIQgAAEglMAuTM46wWlggAEIAABCEAAAkYTQO40Wo1ieyAAAQhAAAIQgEBwCiB3Bme9oFQQgAAEIAABCEDAaALInUarUWwPBCAAAQhAAAIQCE4B5M7grBeUCgIQgAAEIAABCBhNALnTaDWK7YEABCAAAQhAAALBKYDcGZz1glJBAAIQgAAEIAABowkgdxqtRrE9EIAABCAAAQhAIDgFkDuDs15QKghAAAIQgAAEIGA0AeROo9UotgcCEIAABCAAAQgEpwByZ3DWC0oFAQhAAAIQgAAEjCaA3Gm0GsX2QAACEIAABCAAgeAUQO4MznpBqSAAAQhAAAIQgIDRBJA7jVaj2B4IQAACEIAABCAQnALIncFZLygVBCAAAQhAAAIQMJoAcqfRahTbAwEIQAACEIAABIJTALkzOOsFpYIABCAAAQhAAAJGE0DuNFqNYnsgAAEIQAACEIBAcAogdwZnvaBUEIAABCAAAQhAwGgCyJ1Gq1FsDwQgAAEIQAACEAhOAeTO4KwXlAoCEIAABCAAAQgYTQC502g1iu2BAAQgAAEIQAACwSmA3KlQL01NTatWrdq7d6/CeyqjvF6vx+NRefO30TabrbS0tL6+Xnuyvr3rePTXt3kx12MScBQe6Zz+dmfmu54bLb1dxf2Pv+x8Y7cz72BvZ8T0EFAUOHjjzL+u7Ft95aPe/nvzykdr6/Z90Hyyw92tuOTgGWm326urq91ud49F6rG57nEJBp6gs7MzNzd327ZtLpdLvpkOh8Nut3u9XvlbkjFVVVUVFRVOp1MyHi9DXCB0c6dGuLx8+XJkZGRWVpZ856APZG5ubmdnJ3/X7XavXbv2j3/8Y0lJiUZzVl5ezhgrKCjgM/Z5oLOz8+bNm6WlpevWrUtPTx8wYABjLCoq6sKFC31eJmYMrMD9d461jlnbOfXfP83ecn/q5offXte//Hur93ZM3uCct8Wz+B33svf0z4gpIaAokHFi8z/O5GVc3f7qjV29/Zd1873spqIc20fLmj/+yfNAcfn9MPKLL77461//2tDQoLYup9M5ZcqU8PBw7WbwwYMHa9asSU5OfkxdAGrFC/Lxra2tr7322uHDh30+X0tLS0JCQlpamsPh8Pl8hw4dmjJlSm1tLW1CQUEBY6yioqLHLcrKykpISGhp+e1Xt8fjqaysLNXxV1VV1ePCMcGTKxC6uVMjXGq8RR9I8bPk8/mcTmdhYWFYWBhjbNasWTabzefzORyO+fPnxwt/gwYNYowNGDBAGBf//PPPX7t2TbIDeb1eu91+8+bNo0ePlpaWFhYW5uTk/OMf/4iPj6eFsN//WSyW4cOHv/7668ePH3/w4P//Yti7d2+Of3+rVq1qamoSi1dUVCSWX+ew4maKizXe8L1JG++9tN4x823P4u0PMwrvT81/UPlbw629sR0rP+ycsv6nWW+7F277NXcuLPi57rb2LHgXAhoCH9Z+Meng2lnf5L96/d3s5g96+2/x7Q9eb/1wqX1fjm3PbtsXGivib1VUVPjX8Pw6d01NDV+gx+PZunUrYyw5OVkjeu7evZsxtn79ej6j4kBZWVlYWJi4KMpSv29WlV8FpONAsVT/25FOp3P69OnDhw+/c+eOmDvb29tTH/21t7dTCbOysgYPHqwntUtyp8PhSEtLU2b9/VjFTp//rQ/WHkAB5E6FTs3e5k6qj6ampnHjxjHGnnnmmRMnTty/fz8tLS06Ojo7O5ua4EmTJjHGRo4cyVvkxMTEyMjIy5cvS2pU4/M5aNCgpKSkefPmrVu3rqSkpLa2Vux5lSwnKyvr9x/nXr+SF09/Ay2uTL4cSVGN97Jzan73K/kPMwo82dspenZP2/zgbJ32lt5b9kHnlH/9NGuTe2GhJ3u7a16+Y0ae+9ot7bnwLgQ0BFae2pVevGbGV3kZ195ZcPPdPvzLbnr/NdtH2Y0f5F4r1lgRf6tvrYTYYjDGysvL+QJ9Pp+e6ElN96hRozo6OsR55cNHjhyxWCzJycnNzc0+n0/Pz2n6zd9j7lTb9tjY2DfeeOPGjRvywvAxLpdr6tSpjLHZs2erHTqjUMgYM5vNJ0+e5PMqDrS1taWkpBCsxFM+/blz58LDw3fv3s1z5/3797du3WqxWE6fPk3Td3d3jx8/PjU11W63y5cgGaOYO2NjY69evdqi8nfq1KmIiAjkTomkwV6Geu6cM2eOfP+nXV/xratXr8bGxkr6O/k+4Xa78/Pzw8LCjh8/TtmRH6rw+Xzy4+xZWVmKgYzmtVqtBQUFlZWVLS0tbW1tek5a4iWhgc7OTvnWaY+hDeRNg3y91KoWFxdLlrNx48ZfMrd8fEtLy5w5cxQ3U1Jag7105B9xzChwzS1wL9hG0fPB/IL70/MffKt6gq99yc6uKbnOWXnuhQWe7Hdcc/O7p224l7nZYDLYnH4WWH7y3Rc/WT399H/mXtmWUb+zD/8yb+7KbipacP3dDdcO6Cm8w+GQtA89vmxoaBg7dmxERMSpU6doYvnJhW63e+nSpYyxESNG3Lt3T16Sjo6OWbNmFRQUdHV1yd8Vx3i93sLCQsZYenp6jxPTjPIGXFwgH1bLnTxVb9++Xe3kyNra2qioKDppih/X5kumAZ47GWMZGRlq8ZQmLikp4evtMXc6HI4ZM2Zs3brVZrPRcfbW1tbs7OzCwkJe4MbGxmHDhmVmZvIxkuKJLxVzp9q3J82o0ekjLhnDT7RAqOdO/pns1YDGJ8fr9ba1tXm9XsqOY8eObWhooGa0uLiYMbZx40beBKsFMpr3f5LVqFHT2EBqVeVNmNp4n8+nFq+f6E+OnsJ3vrrLMaPgwe+jZ9fUTQ+++V4++73Xtv8aOmf/FjofzH8UOqeu/7lV4ftVPjvGQEBNICC5c9Gt9zPqdm64qit3qpVEY7zORs/tdq9bt+7SpUvUsOhstxXbUkqxeXl5dBajRtnorV7lTkkT6na7v/3229GjRzPGLBbL8ePHFVcnZla1jlUxd0ZFRanFU5/Px3tPSUneaPMyXLt27fnnn+cnTcXExFA54+Li+Eg6V+r48eOSo3b88B1dh+R0OisqKugczgkTJkRFRX300UelpaUVFRU//vhjWlqaRIaXgQaQOyUghnwZurmTrivin5leDUiuK1LcM6gZ7bFZVGwQdTbBiuv1cyRyp5+AktnvZ+50vLLFNWerO7PQk/2OZ/E7D+Zt6Xz53w/PCed6uh50Ldl+f0quSwidjmnrO6at99zt+WCWZI14CQGJgJFyp7hpq1evplQUFxdnsVgYYzExMTwniQPi+eVnzpyJj49fvXq1uCg9w/7kTlq+3W6n6Dl16lR5b25XV9eYMWMYYzNnzmSMjRkzRrEjludOs9msfaEq7z2lKfXnTrpQlTE2aNAgzkiGK1euVPtSo4N7vHiSyRISEm7evJmWlsaTqOL1RQUFBVarFcfZ9eyQT+40oZs7A1hnHo9HftCBrg3iXZstLS3y/k61A+iUO+k4u+KHU3tkZWWl9sEXjW1H7tTA6dtb9xe963gl3zV7y8PMAs8iip6bu6ZseHDh0bmergddWQXdvwudbzumre+c/q+fETr7Jo65fi/wW+788j9zLxdm1O3Q/2/rrbIfOx13Ou690fDhosbdGXU7NtToOr/z9+vX9cqfH9s0r3ZHGi8Excc+JBv/c6fP56MeTcWinj9/3mq1/ulPfzp//nxcXJzVaj1//jwvNh+gJjoyMjIzM1Mjnvp8vry8PMbY/3v0Jz9fli9QMtDc3JycnEyp8ZlnnhFv0tLR0TFq1CjxXAg6O4LOy6KbK/XY3ynJo4ov+1A7kq3Ay2AWCN3c2d7ePn78eP5jThw4c+aM4gXpfJrx48fzi/u6urpeeumlSZMm1dX9dsmIPHGqHWfnqbS9vV1MitSMKn4g9YwUTyr1+Xx05EJjRvF3sM7cKf4OJhb6iSwfHx8fHxYWptitG8wfjMCW7f6SXY7pec7Z+Q8ztnoWbfNkv/Ng7ttdk3MfHL3QlbW1e8pbvKfz4fy3HdP+1TXtrZ9tPwa2DFhayAr0LXcWNJY97P7Z0+3zdPv+fetwH3KnWtcXb4vEQ8lquZNuXScej5LfV7KtrS0pKUkxzMkrXZ47NS4qKioq4ksISO6khciL6vV6ly9fzhhbvny5x+PJzs6mYXmPBs+dhw8fHjZsmNrVRXa7PTU1lTG2ZcsWuopcbOf5RkkGGhoakpOTqX/0hRdeePXVV+kUWLpJCyVjxlhZWRnNSPKSbxy+TMXzO/nFA/T1R1cUiCektbS0aFwsyxeOgSdXIHRzJ316LRaLeAoLXbFIn09qByUT0IkvYqtx/fr1GTNmUEuanZ39y4nYfUiN4gIp8qalpQWqv5Nyp2RDxLAotkc6cyf/5tA5EOK585dz0e7nvOuY9h/XrE0PM7Y8ip7bHszZdH/Suu4p61yz/uNZWOBZ/M7D+W//NC23a9o6753fblny5LYsKHnwCPQhd25rPMZDZ2VrXeaNd3/NnbU7NlzpRX8nz53yw9/ya8PVcidfCG9q5Cmnx1ZLrAt57hTPquRroQExGQckd9K6kpKS2traxFLRhec8RJ48edJsNqekpEgm4zfXZIwdP348IyODMZadnS2Pp7SEuLi4q1evjh8/vsf+Tq/Xe/r06ejo6KioqKNHj9J1Rffv3y8uLg4LC3vmmWcuXbpEyVi8U9XVq1effvrpJUuWiNvChxVzp+TLjupOXqd8IRgwnkCo507J7k4ti5g7JRMoNnBer/frr79OSkpijNH9z+x2O+/L1DOg2N8ZqKxGuVOyIbQrUyPYh9wpzqK2KP5pCdnrirgADdzP2emYusE1K+9hxmbPokLP4m3uBVsfZuT/N3Ru+ml6bte0fyJ0Stzw0k8BnjvnXC6cX7ejx39iT+dXLbXz63Zk3ng361HuXN/73CnJGbQt8gynljvF47YfffRRVFSUvCmjZjkpKenAgQPyc5Cor44bquVOSZsmL6F8DF+mOKBxJJ0fwpZfh04XnvP7E/H7H5WUlIgLF3NneXk5D5e3bv3uVmsej4ci6fLly+nidO3cabPZFi5cyBiLj4+vqamRZMGLFy8WFRV9//33UVFRw4cPf+6559LT0+lirLKyMsbYnj17JIWkl8idiiwYidz52yMZaFeglqW3uZPmdTqdubm5/ACEz+erqqqSN4KSMYqPEVNrgvu2vyJ39s3tcczlWP6eY2qua9a/3Rn5nux3fn5t+8+L3/l5yXb3/Led03O7p65B6Hwc7CG+zP/mzn/PuVwwv277ihsfza/brvZvx61yd7eXDq+fuHuZJsu8sfO/ufMT/ZiKv9JpdnmG09PoSfIQLwnd3EfSVclfKgZK8QxC+c9vxdveycvMCyAOKOZOup79hRdeoHskVVdXi7PwmCje8Z6u4JEnVEKgHMkvRdq9e7e4QLqi6Jce0zNnzojTi9OIwxSIZ8yY0dra6vP55M/JdLvdc+fOZYyVlJSsXLly2LBhjY2NPp9v5cqVERERFy9eFJfGh3nu9Hg8d+/ebWlpod4ZXjUaA2JPM18gBowhEOq5U7yve05ODt3aXcydkgkyMzPDw8MVf8HLdwg9t21XXBTdm1fxLflaehwT2Ny5ZMkSxZ/Oim03lQ39nWIddS/e+tPUt9wZ+T9nF/68ZMfPOTt+zi58ODeve/zSn2/dFadyabjAAAAgAElEQVTEMAQCIrC84t0X96+efurfcy4V7G/+2tPtq7Pbsuvem1+7XfJv560Tnv+GziO27/i7mdcf5c5rO9ZfCcbcSU3chAkTJL/q6cqb/0nuVEtUzzzzjPwJk/X19YMHD5ZcSEQnU8qfDCTJkdTwSi5+p+c20UjJ9Gp7lN1up2sMPB7P4sWLp0yZIh7idzgc2dnZEydOdDgcdCulQ4cO0WVGvI9WvmRq+efMmRMVFTV+/PgbN24kJCRIzvhSvGdTfHy8eGatfMkY80QLhHruVGwdxNypOIHORJiVlSVe+ic54K5xC3pqKfha9ORXKqf8CBS/rkjxLXlYlKxavnNTYeRNp3xRfF7kTk7h8/l+en3bT1PXehZs9ix+x/vajp+XbP95yTvujE2O9JVe5E5RCsMBEhBz58m7NdSX2WBvz67bzZPl/Nrtu259wUPnp3fOiW8Fee6sqKhgjMnPMqTGKnhy54wZMxSvmBFjIq9ztb5MSY6krk3xqfSSGSXT8+VLBvhDRs6dOxcVFTV16lR6YGZLS4vNZqMHiFDhb926FRcXl5GRQc83Wr58ueTs0q6urs8//3zy5Ml0c6tfDsSHhYUtW7bs5s2b4mPfqQBUPMWvJ0kJ8dIwAqGeOyW7uz/H2WmfePjwIf8QSvLWvXv3jh07VlVVRVNqJDw6bDR+/Pju7m5+e+QhQ4bwC+rlA0OGDGGMSTaHVhTY/s6srCyz2Txz5kzxCtOcnJyRI0cyxiZNmiQZn5OTo/Y4UMN8ivRvyE/L3vlp6pqHszd6Fhb8vGS7J7vAs6jAk13oyS50z/m3c9paRE/9mJhSp8BvufPkv+dcLMiqffe6vYWiZ/M9+//X3rm4RVXtffz9V9YMcB4wHxJ9UtEe8tHD08mTHi09FqlcjgkYcJRQCbyBlh41MUNAvGRChr4eCwtNVCh4vRWBeQVSQMiRywFBxwFms/er/jqr1d57NjOA0zjz5fGpNWuvvS6ftfZvf/e6rqj7NOFGfsKN/L1Np8lTeqB83lxJnvy/SfV7khv3J17fvfmyJ/Z3FhYW6u5kSV/+l34/CkxG3s3j7PRZPn78eO3h8lwmZmVlqSqUNkJSWXWVjuRj9Fz/qSZ9qsKrkuA/jXs3+MA6HViamJgYHBwcHR3NF0LxeOh1w/trgoODq6qqqCeVFiGp9i6F7uTofMfh67pTtD58Tg99H9Mggu4zz3siVQ3FbrcnJibu2LGDzrRU6U56IHmKBrrz0qVLgYGB/PlUxaNKlH4aiEu6pNqogjpf6XBLsT/AIFfaAzC4cRnUMVJrpHTL/qx42lbt6o3MtJPoXL5LStguJWTZl2yTErOkd3MGfpWe6wduPT4wGn8gMFIE/qs7t8Zfykm4sWtp7Z66/1hIZVru3UutO/BpUxkXnQW3yxNu7FL9e6I7P0m8nj8E3anaN4csD21mLM7hG878TpoKqR2E0bWcf4juvHPnzksvvcQYy8jI4B0TVL9VVVWPTkU3MKFiX6ZqXRHFIApN+b/7MfFF7k7qTlqNkJ2d7efn99prrxUXF9Okhd27d//pT39STTOlFHV3D713797ChQszMjLq6+uTkpLEdyXNHFB1S0N3jtRj/gzF47u6k769VFOCNm7cyCcv0vOgkmsGg+OKotC4w8yZMzs7Hx8zo7J6zutOWiTIn09VPLrNa1DdaWDXnNedpMV1XyQ4n123XrhnX9rO3qhMe9wWadnOgceiM6t/0Qe2eWl9kRn22E1cekrxW23RGZCenBscwydAujO6fGvcpZx3bux658auf9buudx+m7RmZ7eVi85PmsoogOq/ifV7ljV+knA9/1+u93caWJ5h6k4aXCLBqp0HSf7PPffctWvXRIaOdKduPsUc0o2ijxgtd1PXpqi36BL5h4SE8J2eyd/gBCCeJXG9kVZHiovfaRBc7IbUhudZVTkkSVqxYkVAQMDFixfpkizLW7duNZvNFRUVYmDeR6tazySGoTegyOGLL76gbmnjvlXGGO+dUUWIn95BwHd1J/Up8gdbdJAOs1gsEydOFP25W3yWeDsQV/yRp0ovkjRcu3YtXSVzoBvV5s2bxc0pVPHwFEXHoLpTtUBKHA2/evUqj8ogV4qi0Px3vokGv4ufwyFKWH7VmfzzwF7p6E/b2ReZKXHRmfhYdPbFvS/9eL0/55BWevZGZwzcaPBKFCiU+wn8pjtrct65vov+JV7fzaWn9EDpfzCQ2/gNv6pyJNbtWdbwScK1oejOgICApKQk0eBwt9hD6VJ/5/3794uLi8PDw2/fvk1GSTUwxXdB1hpYR7pT98wLcXXLMHUn7/LkA+KKonDJ6EjA0dRPcSNPXR1JI/ILFy7Mzc1VdUPqhtdthKWlpY8k5tSpU69du0adshUVFWazOSUlhUbw+F11dXUhISGMsa1bt6q6b3kYre6k91pZWVlycrKjVkErd6E7RYze5/Zd3Ul9igUFBeJyHxr9IfFEwjQzM1MMYNDfSY+ouK5QpbfIgnzxxRfUjBwpPLK/4tpGVTy6rXBQ3am1y7rxOMoVBaaVjFw6izFgXZFI4zd3b1/vih19kRmi6LT/4/2+tzOUjnsUzL6zqD9ynarXsy9qrXz91m/xwAUCQyWgqzvfub4r8Xp+dXvjY9F5fyC74bhKa4o/h6M7tcpPtxzO687p06fTCebTpk1raGggu6qdHEmmTLtDuyPdqfvNLGZ1mLqTf5yLk47IogYHB9fW1oppcTffEam8vJw8dXUkP4qdlvKIKlY3PI9fdNy5c2f9+vWBgYGMsdmzZxcWFoaEhEyZMqWl5Xczf3p6eiIiIhhjZrNZ7BwVoyI330eJfwZQt7Tor7qLcgvdqcLiZT99V3fqbjxGloUMEM1V5zKRKp6eCq0lJaNJ25vxJlJUVLRu3brm5mZFUWiDtIkTJzY1NT148ECWZdojbdOmTaoVjmRBxM0phqk7m5ub161bpz1cjudTdDgqoKIosizT6W2lpaXiLeSG7tQyUXp7+979sD8yQ4rfLC3Lfjy8npglLdrQ/3aG3Pq7YzCljwrtkeukJwPuA0/mekpLtvRHrlEgPXWwwss1Ar/qzrKtcTU737mWp/q3p+lURt3nKk/Vz8S63ctu7Uu4mv+vy4edT9uRidONwRndydUVHdJjtVo7Oztnzpypq9todab2e1urO+vr60tKSlTby2szOXzdyXs3V6xYIT35o93d+VR+baK9vb1RUVGMMT7DUldHSpIUFxdHI3KqKQe64bUJcR+r1bpnz56goCDGmMlkOn78OL+kKIrdbk9NTWWMpaamnjlzxmw2a4UpDy/qS6o7qg7RnwcmB+UWulOFxct++qjudLTxGNed9BirHmA+p1urO48ePepoObmiKNevX582bRpjLD8///jx42azOSws7MiRIzabTdueaMRE7FMcpu7UJmHgY6A7Gxsbx48fP3nyZF0DDd2ppvpYdG61R63jonPgV9G5Trmrcwym/aMCKXKtFLtxIDGLS0975Gr5cp06ZvwGAVcIpJ/e/eahjGgHulMlMXV/Dk13upJHZVDdyRWPv7//oUOHaIl0fn6+qMnEFGkVS1JSkmogWKs7xbsM3MPXnYqiUO8sLRXi292rejdUeaBpkXxFuSMdSSceaWk4Cq9Khf+8f//+mjVrGGN+fn7Ue7pmzZpHntRnyU9s7+npkWU5IyODMTZ37lzacJ5HQg5RX4rd0qK/6hboThUQr/zpo7rzxIkTJpNJ1HZUuzT4furUKRq2XrhwoUoa6soymrgjTuWm2GRZrquro/PHzGbz3r17JUmyWq1FRUW07dHo0aM/+eQTMQnSdqoFjIPOwuYTT7Uf96622oaGhrFjx2qFNTcxjib0ONKdsiwnJSWJQ0uuZukZDd+/+7Bt4Xv9cRsHHvd05j0Rnevt/1ijWB6fCKL7N7D9gBT1m/S0J+/ojV1vXZSuGxieIOAkgfdKd71xcF3kN5tif/hYV1YO6ukG3dnZ2fnXv/7VwFCUl5f7+fmFhoZe+u++SDU1NcFP/q5cuaJCQQtiGGPZ2dmqS0PWnYcPH9bdrUkVP1lCrQmlYLzLMzExcd++fYyxiRMnqk65VEVIS4UeGXkaPXekIylm7WvIUXhVKrIsNzc3r1q1irTmkiVLurq6LBZLRETEihUrbDbbpUuX6LShBQsWdHV10e1Wq5WUqFgvdIksP3Ho6OgIDw/n3dKY36mC72s/fVF30tCMaOCuXr0aHh4eGhrq7+/PGCspKYmJiREHza1Wa1xcXGhoKOlF1cKakpISf3//mJgYriBbW1tXrVoVHBxMinD27NmqNYySJJ08eZI6QSdNmkRXJUlavXo1Y2zJkiXiPG7SnUPev9O4TfMdMbh4ZYxpx32om1Z3/zmKX9SdVU92BvH39x81ahRFO27cuJs3bxrnxMuudsem9UQtt8av70/ePpC4TVq0fsBQdFLxpa37pKjVUuwH9oR/PUzY1BOf2ROz0n7xJy+Dg+K4k0Dayd1/L1gzv/iDf1RkxdbkxF/OdfVfwvX8pfV7Ey7vyrry6/T04edfHDTnxkecX6RKQpblY8eO8f0vf/rpJ1rakpuby3s0qVPNbDbTJEXVBzxF6JLupC1KePYYY0VFRaqMecHP77//ns4Noj2Yr1+/zpE+ml5ltVrpmDrGWGZmJn/NUcHpKKNHr0u+VL+0tDQ0NJQipPm19HbgUwUG7UnBOLsXNCqDIvii7pRlef/+/RkZGTRSQ8MH8fHxoaGhr7zySkFBwcOHDw8dOhQfHy8+YDk5ObRb+5w5c3744QcV05s3b9669dsqkEdTd9LT0ydMmLBx48Zbt27xZ1h1lyRJX3755YoVK7jK7OrqSkxMVH2+P9VxdppywA3rqFGjoqOjxbJQntva2ubPn6+a6yMWp6CgIDQ0tLKyknguWrTo0dyg8ePHh4aGzpkz58KFC44giJF4k7s7Ib096p9dsenW2HXSosyBmFXKnVZnCihv2S1Fre79x+qet9M7F63siHl3oBZr250hhzD6BA5UfzNnX/obn69dcOz9qNObYyq2ufpv0dms2As7FlVkHaot00/DdV9xSiIdaaNrWh1FbLfb09LSsrKyuPFUFOXatWvUg0DG/Pjx41qz45Lu7OnpiYmJIcs/a9asgwcPisk5ytsz52+321evXp2dnX3nzh3dzF+8ePGVV145e/asliftJP/vf/+bL8xqaWn529/+Rpb/hx9+kGW5paVlyZIl/L2GcXZdyL7j6Yu6k5bIcNGpW9myLBsH0L3Luz0fdcfqGh3vLvWQS9dfUnZnfux/opY+iEqxv52utFicj0r+cM/DBSndUe92RCZ1LVvn/I0ICQK6BCIOrHssPT9b++bhzLeObnjrS9f+LSh+P/KrjXEnsx7Ydaak66YIT28igBeiN9XmH14WH9Wdfzh3ZMAXCEg/N9h2fjrw1Wmlr8/V8g78dL1v10H7yd9t1+xqJAgPApzA+2UFqd/sWnv6kw3fHtjwnWv/MioObL1Q9B9bN48NDhAAARAYGgHozqFxw10gAAIgAAIgAAIgAAKuEYDudI0XQoMACIAACIAACIAACAyNAHTn0LjhLhAAARAAARAAARAAAdcIQHe6xguhQQAEQAAEQAAEQAAEhkYAunNo3HAXCIAACIAACIAACICAawSgO13jhdAgAAIgAAIgAAIgAAJDIwDdOTRuuAsEQAAEQAAEQAAEQMA1AtCdrvFCaBAAARAAARAAARAAgaERgO4cGjfcBQIgAAIgAAIgAAIg4BoB6E7XeCE0CIAACIAACIAACIDA0AhAdw6NG+4CARAAARAAARAAARBwjQB0p2u8EBoEQAAEQAAEQAAEQGBoBKA7h8YNd4EACIAACIAACIAACLhGALrTNV4IDQIgAAIgAAIgAAIgMDQC0J1D44a7QAAEQAAEQAAEQAAEXCMA3ekaL4QGARAAARAAARAAARAYGgHozqFxw10gAAIgAAIgAAIgAAKuEYDudI0XQoMACIAACIAACIAACAyNAHTn0LjhLhAAARAAARAAARAAAdcIQHe6xguhQQAEQAAEQAAEQAAEhkYAunNo3HAXCIAACIAACIAACICAawSgO13jhdAgAAIgAAIgAAIgAAJDIwDdOTRuuAsEQAAEQAAEQAAEQMA1AtCdrvFCaBAAARAAARAAARAAgaERgO4cGjfcBQIgAAIgAAIgAAIg4BoB6E7XeCE0CIAACIAACIAACIDA0AhAdw6NG+4CARAAARAAARAAARBwjQB0p2u8EBoEQAAEQAAEQAAEQGBoBKA7h8YNd4EACIAACIAACIAACLhGALrTNV4IDQIgAAIgAAIgAAIgMDQC0J1D44a7QAAEQAAEQAAEQAAEXCMA3ekaL4QGARAAARAAARAAARAYGgFP1J2UJ/wXBEAABEAABEAABEDA+wgMTbNq7/ofrZdLPt5HFiUCARAAARAAARAAARAQCbgkDg0Cj4zuNEgAl0AABEAABEAABEAABJ5RAqQ+Ryrz0J0jRRLxgAAIgAAIgAAIgIC3EYDu9LYaRXlAAARAAARAAARAwDMJQHd6Zr0gVyAAAiAAAiAAAiDgbQSgO72tRlEeEAABEAABEAABEPBMAtCdnlkvyBUIgAAIgAAIgAAIeBsB6E5vq1GUBwRAAARAAARAAAQ8kwB0p2fWC3IFAiAAAiAAAiAAAt5GALrT22oU5QEBEAABEAABEAABzyQA3emZ9YJcgQAIgAAIgAAIgIC3EYDu9LYaRXlAAARAAARAAARAwDMJQHd6Zr0gVyAAAiAAAiAAAiDgbQSgO72tRlEeEAABEAABEAABEPBMAtCdnlkvyBUIgAAIgAAIgAAIeBsB6E5vq1GUBwRAAARAAARAAAQ8kwB0p2fWC3IFAiAAAiAAAiAAAt5GALrT22oU5QEBEAABEAABEAABzyQA3emZ9YJcgQAIgAAIgAAIgIC3EYDu9LYaRXlAAARAAARAAARAwDMJQHd6Zr0gVyAAAiAAAiAAAiDgbQSgO72tRlEeEAABEAABEAABEPBMAtCdnlkvyBUIgAAIgAAIgAAIeBsB6E5vq1GUBwRAAARAAARAAAQ8kwB0p2fWC3IFAiAAAiAAAiAAAt5GALrT22oU5QEBEAABEAABEAABzyQA3emZ9YJcgQAIgAAIgAAIgIC3EYDu9LYaRXlAAARAAARAAARAwDMJQHd6Zr0gVyAAAiAAAiAAAiDgbQSgO72tRlEeEAABEAABEAABEPBMAtCdnlkvyBUIgAAIgAAIgAAIeBsB6E5vq1GUBwRAAARAAARAAAQ8kwB0p069/PDDD6dOnero6JBlWefyH+d1586dr776ym63q7LQ1NT0448/av1VwVQ/y8rKUlNTi4qKVP7GP7u6uk6ePFldXW0QrL6+vqSkxGKxGITxhUvW3OPdMR91J+2Vbra6Wt77n3/XnbbflnXU1RsRHgR0CRy9WfmvK4cyrxx09V/GlYMb6g4daCm/Z3+gG7OrnlevXk1NTc3Ly+vt7XX+XkmSzp07V1ZWZrPZHN3ljHVydK+iKBaL5YsvvmhoaHDVljqK02KxXL161dPeI45yC38QcA8B6E4156qqquDgYLPZfPz4cfU1B78lSbp165YkSeL15ubmdevWpQ72l5mZ2dzcLN5os9lqamq0psputy9ZssRkMh07dkwM78hfDKPrzsnJYYwlJyfrXnXkefny5aCgIOO7KOZTp045isQX/O/vOtk2a0N31IcP47LvR33c/8PPzpe6K7Po3oIttneypeW77Ks+cf5GhAQBXQKJpz9+uzIr8Vr+0pv7XP2X3PBJSnNBquXgqpbPH0p9uvG75Hnq1CnG2Lx586xWq/M3Wq3WefPmTZo0qbXV4VecM9bJUYpdXV1vvvkmYyw1NXVEdKfdbk9JSWGMffIJHmFH1OHviwSgO39X65WVlcHBwSaT6dNPP239/V9TU1NHR8fvQj/5IUnShg0bTCZTWlqa+CFOFpA58ZeSktLX96s1f/jw4eLFixljubm5WunZ2Ng4fvz4iRMn3r59m+ekoqLCbDYvWbLEVVsJ3ckZPg1H1/ytXW9tti7+SFqe35+Yez9qR9+5WmcSurf2s+6Fmx/GfmRflvdYdy7LGaj7xZkbEQYEdAl8Vntm/tENsed3LP15b0rLAVf/Lf/lwHttn6V3Hkq1FO63nNFNwiVPD9SdbW1tc+fOZYzFxsb+8ssvou23WCyNjY1aa2xcZFmWc3NzGWNjxoz5+WcXvjmNo8VVDycgSVJxcfHkyZPpzb9v3z6eYYNLPIyPOKA7f61oSZL27t1rNpsNhOLo0aMvX76sbRn8Qzk+Pr6np0cVwG63NzY2qnpDz58/HxYWxhjbsWOHSi+2tLRMmTJFlJ7d3d3cDm7cuHHmzJlVVVXk09DQMGPGjAkTJnCf1tbW7u5uVR50f46U7pQkqaOjg+ewtbV169atjLEjR46Inp2dna7abt1sPyue3VE7HvxjR39ijpSST9LzQfTHfRfqjPPftepA98J/PYzdbl+WK6Xk976zw7ooy37jt88M49txFQS0BNZ+uy/iyPpF/5eVeGPXPxv2DuFfSvOnKy0HU5oObLpxRBu/qz4jqDtF29ja2vrtt98GBgbGx8eLlqe9vV1lY1UZvnTpUmhoqIHlZ4zl5eWp7jL+efz4cf42mTFjxtAmHREogy5esuEGAYwzqbr6xRdfMMZWr15NhppSV2EZN25cWlpaXV3dM2rMdQvFGHv++edTUlJu3rypYuLST0mS0tPTRWI5OTkUg8Ell5LwjsDQnY/r0WKxLFq0iDEWGhr62Weflfz+r7i4+OWXXzYef+np6YmMjGSMqaSnJEmZmZmMsbFjx+bm5nZ2dra2tlLTDAsLO3/+vG4zamxsnDJlCh/rT05OFpvyoG4+CG481v/qq68yxl588UWDuQBXr15V5VA7ktXa2jpp0qRBc+XqsJoq3Wfup3XHceuinN4lOfZ/5pH07EvIuR+zo++Hekdl6Vyxp2fhJltsln1ZjpSyq3fJjgfRW7qSPnYUHv4g4AyB1eV73/zfzJiKbUuu5CXW7xnCv6SGfSnNBf/8ee+WG/92JsXu7u5NmzY5Mizz589njIWEhDwa6nEUpqysTJWQ7ji7M7YxKChIt79AURSbzZaTk2N+8rdp06bfG/7Hv5YvX84YmzJlSktLiyo/Bj/5ZK3i4uLU1FTG2Ny5c9va2gxu0b3kTt3Z29sbFRVlMpkqKyspM44kGpn6JUuWdHV16Wbbkz2NC8UYy8/PH7KkrqqqCggIYIxlZGTQHBLe32RwyZNxPaW8+brutNlsubm5/v7+jDHdB4kPlwxqenp6eiIiIhhj6enpvLUpiiJJUlVVFZnaRyP4JpPJ398/NzdXHJTX1m5NTU1wcPDEiRMbGxurq6tVBvHw4cMTJkwICAjYtWuX6lJJSQlf9OP8WL8j1cjnaNJSoZKSkpycHD8/v7lz51K6FotF+44hRTt//nzxpeLqMgItk2fOp3vpPuuinL7fS8+eqO19569ry9K1Mv+x6Iz7VXT2JTwRnVGbB9qePeOuLR18/kACI6I73739aWLdni3XnNKdTn6LOjI7jDHeUURLhUpKSo4ePTp16tTg4OCDBw9yK1dUVCQamcWLF5tMJtW39Lp161Rz6BVFkWX57NmzNOgUFhZ26dIlbQWREebf/9oAuj5nzpwJCgriA1ZWq3Xp0qWMsfDw8MbGRt1bHHm6U3fW1tYGBwfPmjWLD9lR6qJql2W5ubk5MzOT3pgRERE8sKMieJq/tlD0jr5x48bf//53xlhAQEBVVdXQsr17927G2LRp09rb21UxGFxShfSFn76rO61Wa15e3ujRox+NCI8ePbq4uLi0tPSrr74SJaPNZqPeyilTpjhjMnp6elauXFlfr9+hdfv2bZpmTrOIxDma2qYmy/K///3vW7duaS8pikKCcuHChcbi9dGSo/b2dnHISXTTaLhqTEoM0Nrayhec0oCO9j3BhamYTwqse0kM5gvu+0l7rP/I7o3faU/KlVJ2Sct39b2T3R35Yf9FYa5nb1/Pivz7Czf1CqLTGr35XvRm6W6nL1BCGZ8qAffrTu3cG9GwHDlyhDE2e/bsxsZG0V908yVHjj6e+aiOiE47GiNeJbcsy+Xl5dOnTydrtnbt2mvXruXm5t6/f58HlmW5tLQ0KCjIbDYfO3bMyQ4wcbLWzp07+aukp6cnPj6extN0BS5PV+Vwp+4ko52VlcXzoCvR6Cp16FLHnpNweLR/rMOgUHfu3HnppZcYY5s3bx5aJomh7siewaWhpfVM3+W7ulNRlOPHj48ZMyYvL89ms7W0tPz1r39ljEVERNBcnObm5tdee40xNmPGDO3n8qC17shcaqWbM7NzaA8R3rW5atUqxlhaWhr3IYcjyaubW3oSdM23NrxBf6c2MMUM3Ulk7r+71/qPHb1x2f1JOdK7JD0/7lm4pa/qyVzP3r6e5JwHvxOdH1mjN3fH/GsAolPbtuDjOoFfded325Zczk2s2+38v523T/yn23rnXlda42fvNu1PrNu95aq753ca93eqYDijOxVFaWlp+fOf/7xkyRKLxdLX15eRkUHj/hUVFbIs22y2999/nzEWFBRUWlrqpK66f/8+H/TXjtXabLa0tDTGmNlszs3NNZ5vygvlNt3Z09Mza9as4ODg2trfvocNJJqiKEePHmWMqW7hOfdYh0GhJEmKi4sbwh4vvLAG4tLgEr/ddxw+rTtlWeafpDTXZ/v27WSAli9fTkMJKSkp/MvbpWZBFpCPR5eUlBw8eDA4OFj0oZEjZ3QnzW3SalaVDx+cciarLulOHqHKsut2qequK2ptbe3o6BCB8zi93nF/xT5rTJYtbkd/4k7p3TwpZVffko96Fmzq+6aqJ3nng4UbeU9nf8JH1uh/9URvHAqC4xAAACAASURBVLD8x+uxoIDuITA03ZnTdKL/wYD0QJEeKB/ePvZH6U6OSDW/U5Zlmi4v9pLqriuiAHzohiIUDZEsyxUVFSEhIYyxZcuW0eD7tGnTnPyMF4fsRalKppL3ftnt9h07dpDFnjlzZl3dIEsMFUUZgu4k7ZuTk2OxWFauXElvMX9//5UrVxqsbfr+++/9/PxUA2gGEk1RlPb29mnTpjHGxC5SYktJjxo1igobHh6uGkh0JMKysrIYYykpKaLWl2U5KSmJMbZ27Vo+1jdp0iSLxXLhwoXXX3+d1m+NGzeOupB4g9F1GBSKZriKupO/drW9M6qq4Z8c4huZ7jK4RDmUZVlVkI0bN4q977wlhIWF3bp1KyMjg6q1vLxct4ye7+nTulNbPVarde3atdR0Ro8efezYsWvXrhUWFtbX14t2Snuj1kelzxRFoTlPYgtWWVJa4SR2YfJNkrUhVSnSk+x+3UnFFB82A7czCltVLq/5eT91rzV6W2/s9v7E7CfSM68vfvv9+R88WPhBb+w2aVmOtHxXf8JHD6M39UR/IN/R2bHLa1CgIG4mMATdmdd0kovOc211STf3Ptadtbu3XHF3fydnpbKBXBMYGBzxkvHwiyRJX3/99Z/+9Ce6Ze3atRaL5cCBA+fOnVMJVp4fcty8eZPWpDLGpk+fLs6MUulOmlTKBS5jbM2aNSp5oYpcJW5UVxVFIbMv2lVSOfPmzQsODhaLT32TNTU12kgURaG3XmFhoXjVQKJRsBUrVtAIIe+akWX566+/JlWkSn3BggV8HRKRGTNmjKjseYVOnjxZlMidnZ3h4eGMsdLSUq47x44dSwu2VKkMuveqQaHq6uro22P//v1UQJ4l8a1Nl1RVk5mZGRoaSlLbbDZPnDgxNDQ0MzNTURSDS4qi2O121RJ4KlFYWJgIh2ebPooojHGTFqvS09zQnY9rRJZl+owIDAxkjPn7+2/fvv3+/fv19fVUzbq7aYrtj7d+bgLo0RJ7N53p76TmpY1NZXO1zciR7uzo6JgzZ06o3h89JP7+/qqLYWFhBh+OVC7+HBovmadp/nzh6qZNm5zc40lbQC/wuZ+6xxq1pTc2qz/xY+ndXGl5nv2fO/sTd/xXdG5/GLOpJ/p9iE4vqGuPKgLXnfGXcxPqdg/6T+zp/L/W2oS63Uk39yY/0Z2bndadVqs1ISFBZVvo5/PPP08jzvR6FsNkZGQ4kmIqG9jb25uXlycuKhLdKSkpISEhJpNp8eLF5K/dmoPqqLOzs7CwkL/OFy1adPPmTb4YyGDpzKPeVhqWpbLk5OSoZttrdSel2NXVtWTJEjLy/v7+BQUFjjo1VOJG26gc6U7G2KJFi2jbUbvdfvToUVrqNHPmzM5O9ZRx6rlUbQvN+9jEdUWqDFDqYWFhfBnNxYsXaUF3UlISJSRJ0pdffkmp802m7927N2PGjEe7F33xxRc8TlrYxBgT19QrinLp0qXAwMAXXnihqamJ606il56eTql0dnZSn+igq4K4gBO3OJAk6eLFi9R9K9a487qTSkFAeA83Lxr/QlBd4quWg4KCvvzyS2oGtDciY2z+/Plc0IvCYOXKlTU1NS0tLdqqFFP0ZLdP687e3t6qqqq0tDT+aTh69Gg+wZyLzg0bNty9e1cczWloaODGUWwQj77JVLqTK0gDB79F7O9UDcHzB2D8+PGimeZuEpHa/s6hLSwNCQlxNAwk6s779+/zB0O3lTuyvLqBfcHTuvoTa9Sm3tgP7Yk7pJRdAyvzB5bvGliRb0/4yBaz6UHUeohOX2gGbi7jf3Xnh/GXcxLq8tfcPJhQl+/o3+7bp+wPZBpeP333MgVLurnnv7rzf53MPDdZBqZPe8lsNldUVOgmIepOu91u/NKlwI40kyRJTU1Nubm5U6dO5XlYtmwZbd/IReerr776888/i5a/paXlzp07PHvV1dXPPfccSVXuyR0G1o8PzRtvkzJk3Tl37lzVSnO+n2hxcTHPITlKS0sZY4mJiSr5qyvRxHtV2bPZbAsXLmSMxcTEqCQ4HW5iMpn40DD1sNLQOcVZWFhI2+zzIXXRPyoqijqeiSpjbOvWreJwPB/33717t5hJlVv1vua1T47ExETeKasoCm/DvJ+Fx6YqO/m7qjt5D+vRo787D5kkuIiLktOeVsjz82w5fFR3Pnz4MDExkbc5s9kcFRX13Xff0XRvcboPD6NyvPjii6IB4m2Ui0hRn1GbcGacnbce0cjyyAMCApKSksTPeu6mrYu0upMWllosltjYWN1zmESr+ssvv8TGxhqvUqRyhYaGksk27uo3sLy8pL7meLB858OojfbEHQMpuQMrdg+k7h5Iye1fkvVgTvrA7bu+RgPldQOB1WV73zycGfPth/E/5RxuOSs9UOo6LSl1nyTU5qv+7bl9Wvqv6Dxu+ZFfTfr5ie68sXvzFWd1J59/SWt0tF/vouW5e/fuhg0bdCUL50MmMSAg4G9/+5vZbNZKAR6SG0xd3Xno0CE/Pz9uz6dOnVpYWMhVrMVioe3weACt48SJE5SWJEkGx2EMav0GVc+64kYspqP+Ti0cLqFWrFghxvCoCImJiaLE4VcpdV2GFEaVPSqvn5/f2bNneSTk4JKUz90ksTtjxox79+7RTkZxcXEBAQEHDx4cM2YM9+eTO/mrjVLR5ooX0Hg1OuVZW6fkM3bs2NOnT3M5y+PU8lSVnYrpqu6k8LywHBpf4cTLopscD//MOXxUdyqK8u23306ZMmXdunU//vijuLqQT/H09/ePj4/nwo4c7777LnWOZmRk8NZJtU5t9KnqTh65tp1RC+YPpzYAjYBMmzZNnDqjClZaWvpos7rx48drN42y2+0//fTTxo0bJ0yYwB/a6dOnnzlzxmCDaIyzqwgrivLwvbyHURukf34sLd8lr9w9sCJ/YMUue+J2a8RaGbpTyws+wyYg6s7yu1epL7OxsyOlbj9Xlgm1+ftun+Gi88s7F8VLQ9CdPNd0um9wcPCVK1e4p8px5cqV4ODggICAixcvqi7RnpGFhYU0Msv1wZ49ewoLC1X2mf80GGdvb29/7bXX4uLivv76a7FTUJblY8eO0c56c+bM4VFxx1/+8hfahlP3wGRVtvmIsGpoVRvMwGdQteG87lQUZfPmzYwxVX6amppeeOEF3S0nKXWtwuMZPnHihDjER8cdicPuPKSiKLSBJddYlC6PnH7SwU4LFy7kw+U0uZMH41RFH0rFQCOK2XBUqPb2dppnaTabaSIp/3oRVxrxqHSrxiXdySW1VtQqipKdnc0Yi4uLo05o3eR4Zp45h+/qTm1VSZJ08uRJmugzffp03YFmGq0ICwvT7qykqzvFHYyTkpICAgJEHzKOumpSFRv9nDBhwrVr18R+Au6mJeQGulOWZdouxNHMa34+p6rPn+a/8p1Hye7HxMSQyXZpHF+3pNqK8GKfh6t2PYxa3x+3VVqWM7AiX0rJkd7NkVJypZRce/yHtugNkJ5eXPt/VNF+1Z3lH8Zfykmu3ftzZytJz5auzhV1nybcyE+4kb+36TR5Sg+Uz5sryZP/N6l+T3Lj/sTruzdfdra/UyxsQUEBLUARdR4PwE/cUI2cUgDqGOPfumPHjr169Sp98+uuFOYhVQ7jkRm+PEicacdzSFsvTZkyxaWBzkH7O8X4dd2Dqg2XdKeuKtq/f79qXJvnxJFE4wEoQi40dePngVVl4YvHaYpncXExzwbFQ+8ymtzJ1erT0520xIdec3zzfAMtqyoOFdOAgPYSj1zVUMWf/CNBNznO9plzQHc+rjJSnDStmA4Tun//vmqyi6IolZWVwcHBjo6vUClFMjpiG3Lk1lVjqticaaPiIR+6DZHbd3FPYwppsVioO8GRKv3888/feuutr7/++vz580FBQfwTzXiDaNrWhG8Q7bP7KBFk26pdvZGZdhKdy3dJCdulhCz7km1SYpb0bs7Ar9Jz/cAtF07k061oeIKASOC/unNr/KWchBu7ltbuqfuPhVSm5d691LoDnzaVcdFZcLs84cYu1b8nuvOTxOv5Q9OddrudVh+vWLFCNfOP76kurucQM19fX//666/n5ubW1dXNmzdPtJaqw9n5R3hra2tjY+Ps2bMDAwO//fZb8ne0LP3mzZs0uYiO82hpaRGHvygnbW1tc+fONT4qWcwzuT1fd9LwN+9cVBXBWHfKskwqLSIigmb5a6WVGKFWOVH4lJQUSZJSUlL4ciLiRps60aRPcRooXR3x/k7KallZGWPsueeeu3bt2tPu73TmnQ7dKTYhR+7/cXTBSf+RVcHOJCpJ0sGDB8eOHUuiMCUl5c6dOydOnAgODhaPzeTbQzzaKmz//v2qEXZKSKUU6fHg+szJfZR4nlWxqX7yYNxBz7BBfyeF5J2aWVlZ3Lw2NjbSRhVLly41XifEPzfFctGXYl5e3htvvMGnSVFyw7e8vIDPuqMvbWdvVKY9bou0bOfAY9GZ1b/oA9u8tL7IDHvsJi49pfittugMSM9nvbo9Kv+kO6PLt8Zdynnnxq53buz6Z+2ey+23SWt2dlu56PykqYwCqP6bWL9nWeMnCdfz/zWk/k5FUfhHr2hkurq6FixY4OTx5Y5s4Pnz51955RXVAD0F1qoTsV4uX748c+ZMsvzTp0+/cOFCQ0PDrFmzVMdmcvMYHx+v218rxim6h2/9SKvxpdxi5OQms897HBVFoT5glX2mwNpxdsoh795TxW+sO/k6Hr5/p0vj7Iqi0Kah4eHhtbW105780bp42sR+zJgxdXV1tEqdD3zzF5C2ZqnGdcfExXIZF4qA8MgN4tTKaEeL1sWa4jpSURTe46uacSvmlrt1k+NXnznHyCq9Z093KorS3Nz8l7/8JTMzs7W1leqvq6uLvoBp6+BHfZ985sfhw4d1RSf/NuKf49SCxed/+OuKeOTaduak7lQU5erVq6GhobTRxt27d0+fPk1TmsT3gTZ+7qMtFw3E5+bmavsDKLD4sPF4fMrRn7azLzJT4qIz8bHo7It7X/rxen/OIa307I3OGLjR4FOIUNinR+A33VmT8871XfQv8fpuLj2lB0r/g4Hcxm/4VZUjsW7PsoZPEq4NXXfSZh00qEL7XF66dIkmNc2dO7etrW3Q4jvSnXSKumphuDO60263L1++fP78+dXV1WTV+UGX/v7+R44cEfcActI8iqUYvvWjUWbdRT98LQ5jjK/1NtCdXEKJKof2aefbVYqZH3Qfpfz8fNV5RVRePz+/77//XhWVdl2Roii0m1JQUFB2drbJZOJLjvhU1I8++ig8PFwluykVLg15QryA4juXX+UOY91Jkzp45Hx9jzZOXSFIb2Hd953uJfoSEGcR8HyqHLrJqcI8Qz+hO/Ury2630/rKwMBA6g0NDQ09f/68fugnviqzSI+H2F657qRDL2tra3/66aepU6fqqklVbPyhcnUfJd0M19fX06QCk8lEn/s7duzg3Z+6t3BPbbnoks1mi4mJUU1CoMC6zyGP0MsdvX29K3b0RWaIotP+j/f73s5QOh4v5HzcW7yzqD9ynarXsy9qrXz9lpfDQfHcQkBXd75zfVfi9fzq9sbHovP+QHbDcZXWFH+OiO5UFKWtrY1Wi3PL4/yBcCqTKJKj+aPiHCEKzAWEGHhQ95kzZ2i/ycmTJ7t6sqUY+fCtH/X8OZoaW11dTfksKCjg6VJ/p3YfJdrJiO++zmWfwUGXBhKNIxLX13Jxyffp5LnS7qNEl2g3JdoEUNzgibpCg4OD/fz8RFX9VPs7H529R/uqhoeH84E7yqHqFSbLMi2oUL27dcUllVT3UlVVFW13qt0gvKWlZd++fXxSCnQnb0taxzPZ36ktBnVeFhUV8X09Bz1YQpKkzz77LCgoyGw27927V5IkrT7jupN/z5HmW716tWouqSzL//d//zd+/PigoKDy8vJHM2kMNmHmW3iGhoaKBki3XOR5+/ZtcRupRzGcPHlSlQdHt2vLxUPSpfDwcL7ec/iWl0f+TDp6e/ve/bA/MkOK3ywty348vJ6YJS3a0P92htz6u2MwpY8K7ZHrpCcD7gNP5npKS7b0R65RID2fyYr3rEz/qjvLtsbV7HznWp7q356mUxl1n6s8VT8T63Yvu7Uv4Wr+vy4fHk7ZOjs7MzMzuegMCgoqKiriL1fjmA10J10S9/4csu6UJKmqqmrWrFlknJ080FI35yNi/WiPEcbYzJkzL1++TL0DPT09Bw8eJNGpmhfL11otWrTo9u3b1C1aXl5OJ/GI+qm8vNxkMvEV09oiaHWn3W5vaGjg5+uoklYUhe8bn5ycTNJNkiSeulaP8kVjqk5NfkaRdtECUdV+UVCND22cXZblxsZGPs03Pz+f0+A53Lp1K01CezQZYM2aNdQ8hqk7JUniQ6k7d+6k+CVJqqiooDFJ/kKH7uQ1onU887qzt7e3vLw8KiqKjnylMwN0F7aLhef7DIeHh0dHR5ONuHr1ant7u6PjeXp7e2m2uzaA1Wql+dr+/v50sEd6ejqfAyCm66q7p6fn6NGj06dPp2dm9OjRGRkZ/KCOsWPHbtmypbm52dFEAkqOHnuxH5dng5bMh4WF3bhxQwwsGjse2Psdj0XnVnvUOi46B34VneuUuzrHYNo/KpAi10qxGwcSs7j0tEeuli8Pfo6z98NECYdBIP307jcPZUQ70J0qian7c5i6s7e39+TJk2+99RZZHn9//9TUVD63MjAwMC0t7caNG8afvga6U1GUioqK0aNH85MeXdWdkiTV19dnZGTwvoZJkyapThV3tQZGRHfKsnzkyBHdkyepH1Q1RYF056hRo7S3hISE/PTTT1QKWZZXr17NGBN7GVUFJK1DVab9r25HNV8IoQ0vnpPJE6Ltk8QNg/gl6mjUjtqPiO7UZo/7bNiwQRz6s1qt8+fP51e54y9/+Yufn98wdSfNe46Pj+fRio709HSeE+hO3jC0jmdPd/b29jY0NBQXF7/33ns0qkIVHxgYuH79etXO8NoCU7uJjIxkjFErEfecnz59em5u7jfffNPQ0EAqk/+3traWn8O+bdu2VatW0VEZfOFkUlISranft28fWZAZM2Zs27atpKTku+++s1gsulEdOHAgNTU1Ozv74cOHlFur1VpZWblu3TqxdGFhYUeOHKFuBnEtP5V91KhRcXFx//u//9vQ0KBdBGqgOxVFefDggdh7QYH5gkddgN7q2b/7sG3he/1xGwce93TmPRGd6+3/WKNYHE5lG9h+QIr6TXrak3f0xq63Lkr3VkQol3sIvFe6642D6yK/2RT7w8e6snJQzyHozt7e3pqams2bN9OaRbItY8eO5QfCybJcXV09e/Zs/q719/ePiIg4cOBAbW2tdoGjse602+3iNzwF5guTtZwfTd1rbW397rvvtm3bRhvR82xERkZWVVUZi2BthFqfEdGdFG1ra+uWLVt4H4G/v//ChQvPnDmjzSRfV1RXVxcdHU3vDn9//5UrV4o7N9++fXvikz/qE9Vmns/v5FjIMWHChLS0NHpb6d5FE3lXrlxJo+e046kjBc/X1vAPBh4ndcdq5z4+Jd05atSo6OhoPtOXZ4MGPz/++ONx48YRgfDw8K+++qqmpiYoKGj4upM6pM+cOfP6669Tb5fZbH799dcvXLggdgBBd4o1onI/M7rTarXGxsbyTk3+aI0bNy4tLU21k7yqkKqfZWVlZrNZnFr0aHL3/fv3c3Nz+TJ5Hr8jB59QUlxcrI2ttbV1/fr1dHa8oxhEfzrkoK2tjTY65peCg4MzMjJu3bolNmgqDm3OvGXLFnFbeMZYUFBQdXX1493OHz5MSkoKDQ2lQokbW6iASJK0ZcsWGv2nwLqdo6q7vO9nd2xaT9Rya/z6/uTtA4nbpEXrBwxFJxGQtu6TolZLsR/YE/71MGFTT3xmT8xK+8Vfeym8jxJK5AYCaSd3/71gzfziD/5RkRVbkxN/OdfVfwnX85fW7024vCvrym8HajvK+cOHD2nYh1sef3//lJSU6upqrU5SFKW9vT0/P188spIO6T527BglUVRUFBoaOnHiRLPZzE2lbuoVFRUvvfQSD6ySBXTLvn37uCQSc7hw4ULVTvK6STjvOYK60/lEue40voX2y1y9erX2XWB8I66CwPAJ+O66Itovd+zYsREREbm5uTU1NdovbGf4yrL81VdfiZ+S4l3d3d1i1ybv4+SOU6dOtbS08MPWZFkuLS3V3a2Dzp2rqanh96ocvB+UF6SgoOC5556LiIgoKiq6e/eukyams7Pz1KlTq1ateuWVV7Kzs/lddIKC2WyOiIhwVF4qe2VlJZ/CFR4efvXqVZGJj7i7E9Lbo/7ZFZtujV0nLcociFml3Pl1wwRjAvKW3VLU6t5/rO55O71z0cqOmHcHarG23ZgZrhoROFD9zZx96W98vnbBsfejTm+Oqdjm6r9FZ7NiL+xYVJF1qLbMKKX/XquoqHjuuedmzZqVn5/f1NSkKzf/G/a3/9PgzAcffDBr1qyVK1fyQUZa1s0Ymzx5clmZUQbEeYGPVqUUFBRw88WTocOvR40a9corr2RmZpaVlXV0dGiD8fBDdnis7qRl2o6WyQ+5vLgRBJwk4Lu600lACAYCQyPQX1J2Z37sf6KWPohKsb+drrRYnI9H/nDPwwUp3VHvdkQmdS1b5/yNCAkCugQiDqx7LD0/W/vm4cy3jm5460vX/i0ofj/yq41xJ7Me2G268cPTQwg42d/pIblFNnyTAHSnb9Y7Su0OAtLPDbadnw58dVrp63M1vYGfrvftOmg/WeHqjQgPAroE3i8rSP1m19rTn2z49sCG71z7l1FxYOuFov/YunVjhqfnEIDu9Jy6QE4cEYDudEQG/iAAAiAAAiDwLBGA7nyWastX8wrd6as1j3KDAAiAAAiAAAiAgHsJQHe6lzdSAwEQAAEQAAEQAAFfJQDd6as1j3KDAAiAAAiAAAiAgHsJQHe6lzdSAwEQAAEQAAEQAAFfJQDd6as1j3KDAAiAAAiAAAiAgHsJQHe6lzdSAwEQAAEQAAEQAAFfJQDd6as1j3KDAAiAAAiAAAiAgHsJQHe6lzdSAwEQAAEQAAEQAAFfJQDd6as1j3KDAAiAAAiAAAiAgHsJQHe6lzdSAwEQAAEQAAEQAAFfJQDd6as1j3KDAAiAAAiAAAiAgHsJQHe6lzdSAwEQAAEQAAEQAAFfJQDd6as1j3KDAAiAAAiAAAiAgHsJQHe6lzdSAwEQAAEQAAEQAAFfJQDd6as1j3KDAAiAAAiAAAiAgHsJQHe6lzdSAwEQAAEQAAEQAAFfJQDd6as1j3KDAAiAAAiAAAiAgHsJQHe6lzdSAwEQAAEQAAEQAAFfJQDd6as1j3KDAAiAAAiAAAiAgHsJQHe6lzdSAwEQAAEQAAEQAAFfJQDd6as1j3KDAAiAAAiAAAiAgHsJQHe6lzdSAwEQAAEQAAEQAAFfJQDd6as1j3KDAAiAAAiAAAiAgHsJQHe6lzdSAwEQAAEQAAEQAAFfJQDd6as1j3KDAAiAAAiAAAiAgHsJQHe6lzdSAwEQAAEQAAEQAAFfJQDd6as1j3KDAAiAAAiAAAiAgHsJQHe6lzdSAwEQAAEQAAEQAAFfJQDd6as1j3KDAAiAAAiAAAiAgHsJQHe6lzdSAwEQAAEQAAEQAAFfJQDd6as1j3KDAAiAAAiAAAiAgHsJeKLupDzhvyAAAiAAAiAAAiAAAt5HYKS07v8MMyLvI4sSgQAIgAAIgAAIgAAIiASGKRf57SOjO3l0cIAACIAACIAACIAACHgNAVKfI1Uc6M6RIol4QAAEQAAEQAAEQMDbCEB3eluNojwgAAIgAAIgAAIg4JkEoDs9s16QKxAAARAAARAAARDwNgLQnd5WoygPCIAACIAACIAACHgmAehOz6wX5AoEQAAEQAAEQAAEvI0AdKe31SjKAwIgAAIgAAIgAAKeSQC60zPrBbkCARAAARAAARAAAW8jAN3pbTWK8oAACIAACIAACICAZxKA7vTMekGuQAAEQAAEQAAEQMDbCEB3eluNojwgAAIgAAIgAAIg4JkEoDs9s16QKxAAARAAARAAARDwNgLQnd5WoygPCIAACIAACIAACHgmAehOz6wX5AoEQAAEQAAEQAAEvI0AdKe31SjKAwIgAAIgAAIgAAKeSQC60zPrBbkCARAAARAAARAAAW8jAN3pbTWK8oAACIAACIAACICAZxKA7vTMekGuQAAEQAAEQAAEQMDbCEB3eluNojwgAAIgAAIgAAIg4JkEoDs9s16QKxAAARAAARAAARDwNgLQnd5WoygPCIAACIAACIAACHgmAehOz6wX5AoEQAAEQAAEQAAEvI0AdKe31SjKAwIgAAIgAAIgAAKeSQC60zPrBbkCARAAARAAARAAAW8jAN3pbTWK8oAACIAACIAACICAZxKA7vTMekGuQAAEQAAEQAAEQMDbCEB3eluNojwgAAIgAAIgAAIg4JkEoDs9s16QKxAAARAAARAAARDwNgLQnd5WoygPCIAACIAACIAACHgmAehOz6wX5AoEQAAEQAAEQAAEvI0AdKe31SjKAwIgAAIgAAIgAAKeSQC683G9WK3WsrKy9vZ2bSVVV1efPHmyq6tLe+mZ8JFlWZIkV7Nqt9uvXbtmt9u1NzY3N69bty4vL6+3t1d7lXyqq6tLSkosFoujAL7m39nZefbs2c7OTl8rOMrrmQTsdvtPP/107NixIRgHzywR5cpmsx0+fPjcuXPcOvX09Jw4caKurm6ksm2z2cqe/NlsNrvd3tjY6CrDH3/8sa6uTte6jlQmvT6e7u7uTZs2rVu3rrm52dMK29PT8+GHH47U689isZSXl7vaxnSZlJWVpaamfv3117pX3ekJ3fmYdnl5uclkSkxM1NZucnJyUFDQ5cuX3VkrXV1dJ0+eLHHx79y5c9r8HqQ4KAAAIABJREFUHz9+fPTo0e+///79+/eNi9Dd3X3u3LnNmzeHh4ezJ3/p6ela43j58uWgoKB58+ZZrVYeoSRJTU1N3d3d5JOcnMwYO3XqFA/g447KykqTybRw4UKbzeY8Cm0zKC4urqyslCRJe0nVWJ7pjyXnESHk0AhYLJbJkyePGTOmvr5+aDF45l0VFRVms3nmzJn8G6+6ulprr4aT+dbW1klP/iwWy+7duxljM2fOdF7X9vb2RkVFMcZKS0uHkw0fv5dqwf2v5kGx2+321NRUxlh0dPTDhw8HDW8coKenJyIigjH2wQcfaF/uxvdqr+bk5DDGcnJytJfc7APdqdhstpiYGLPZXFFRoaXvvO4sKCgIdf3v5ZdfvnHjhipd0nYk/pz/r0oLKooiy/KZM2fCwsIYY4GBgXl5eTabTZblzs7O2trakpKSbdu2vfPOOy+++KLZbBYTGjduXFpa2o8//uik7rx3796MGTMmTpxIH3nQnWKFyrK8evVqxlhhYaHoP6jbUTM4dOiQo0u8Ej3QIg9aXgRwGwFZllNSUh61lv3797stUZ5QUVFR6vD+dDu6Ojo6wsPDVZZckqTExESTyXTixAmegeE4uO5sbW212Wy5ubn+/v6Msffff9+Zr8ra2trg4ODJkyePVH/YcMry9O7NzMx06WWo+x40yJ5n6k673b5hwwYywiEhIT/99JNBEQa9ZLValy5dyhgzmUx79+6VZXnQW4wDQHfq8xlZFayfhsaXPpHnzp2blZWlNYYvvviiyWRavHix9lJRUZEYGVUqf/E76dDVB3a7vb29vdXpv2vXrk2YMEGrOyl7onF89dVXW1tbs7KyxOyZzebAwECTybR9+/aamhqxI1MsILl1+zvr6+sf9Z1ERETQvT6rO3t7e7WVdv369UmTJo0ZM6aqqkp7VeXT0dHBv2sJ9datWynM7du333jjjYkTJ96+fZsuzZ07V9XNST/nzp2r2660tQkfbyXQ0dExZ84cg3f/qFGjHn0L+fv7G4QpKCh4GnzIPogmyFW3tnlLkpSens4YM5vNEydOFAtlUFJX5Y6iKKLuJDi3bt2aOXMmYywqKmrQLq79+/czxlavXj18GUEYk5OTdevIarXOmzePMSYGOHXqFGNMS083huF4ulrFrmbJA3VnV1dXbGwsYywsLGzHjh1mszkoKKi0tHRoFd3T0xMfH0+xvfDCC4yxHTt2aLuBXKoj6E59XO7XnfRwms3mEydO0FPqvAUUn2dFUahSjxw5olISW7duZYxp/VtbW+Pj41193nTB0UPoSHfSLRaLJTExkT76m5qaiouLz50719raShOhcnJynMwJ151tbW18MKu0tJQxtnbtWkrLZ3UnmXXnm5A25KRJk1pbWwkjoebDIiTuaTYIXVK1QN42nO+k57fA4WUEBtWdojJz5H5KurO7u1tlJAf9SZ/WEyZMuHbtWmtra3t7u+odfPz4cfOTP5XoHD9+vK4YpSLr6k7j7KlyQjlvamrKzMysrKzkFrW3tzcvL0/VW7F8+XLSEPPnz1dd0v1ZVlZm0Cw9X3fqvvVUdd3Y2Dh79mzt2+fGjRsvv/yyo5ZJ1coYGzt2rKMwoaGhmZmZBgBH8NL169enTZvGGAsPD29sbFQU5cSJEy51hIuZaW5unjFjBmNs7ty5bW1t9fX1NGiZnJw86Hw5MR6VG7pTBeTXn+7XnQUFBYyxJUuWqKwYz5/zr3CqVO2kRkf+iqIYRE7zpnWNkdYzKSkpICDAWHfyEuk6nNGdZWVl+/fv//7774OCgqZPn/7qq6/yFNeuXSvOWPJZ3Xn16lVV7VDVmM3muLg41SXdn5s2beLTZFW6s7Cw0GQylZeXK4oC3anbjOHprQS0vYxiSUl0Msa4ReJXnfkm54HJ4WpfnerrkV4BvLtRddWln/ybU5VDMZ+OPj55BsQAbu7v1L4NtQWhfGp1J5k4l3BpA4tl1yY9Ij42my0nJ4cmqsXGxopLkKuqqkJCQqjP8uzZs850fMqyXFFRQXeJsVksFlKi06ZNu379ukHOh9N6xV4PgySGf2lkld7/DDNDI5ubQTPT2NhIn00Gj4eBNFTF70hfOvI31p1kLrUPkoGP1uaqcmjw0xndSUuOysvLaZ7+Z599Zjaby8vLaXKnQcboktayGOTHay4dPXqUMRYTE+PM3C9VqUXdScsRpk2bRrsu0KUXX3xRV7y++OKLvklbBRA/iYBx15GquyghIcF4ps0fQtVAd545cyYoKIiMTEhISEpKivhQ0Ief1j81NVV3kiiZZcbY888/ryJDPydOnEgiw1FPW2VlJc2t7+zsFPv2mpqa5s6dyxj77LPPRH8Dt3FFeH5/p8GLlbciR7qTB9B1UHv4Y62czWY7dOjQ6NGjab7Kvn37+BQpnue2trZFixZR45w9e3ZVVZU2DA/8qC9zzZo1FDgzM9Nms7W3t/PwVquV5mQzxrZv3+7ohQLdyXk663Cn7uQrxfjKa9ogQzVhbu7cuX5+fjk5OSp/7eJxR/rSkb+x7nQW2ZNwjr7pH8154q3WOMJBdacsy0lJSfPmzTt37hzpzsbGxmnTpiUmJl68eDEgIECcKEbjCyrDrTukZZyrZ/0qLXQICAi4ePHiEMoi6k5ajpCVlUXxDNoZ8Mda5CEUFrc8PQLUWnS1lyjRFi9ebDKZhvP5+vSK4Eh3fv7552az2d/f/4MPPggKCtJO7jQYZ3dkkejN7Ugz0RfgEJ6vEydOmEymWbNm9fT0iKBob4rq6mrR0xk3dOcQasEZsMZhZFlubm5ev359YGAgacTXXntt0qRJul8poaGh48ePT0xMJHlKEwOys7Obm5vF7k9JkoqLiynM6NGjT58+LUlSYWGhn59fSkoK//yQJOnQoUP0ep00adJXX32lfb8b9JSRFNHtRHf0fBmjGPLVkVV6z0x/pyzLubm51Gi47iT03NPYobXOVKkqsRUaGkqz2rX+oaGh/v7+I/Lk6OpOWZZ37tw5duzY4uJi3jpdKiMRIPv74MGDOXPmJCcn0zuMir958+bg4ODZs2czxoqLi3krNDbcPJh3O4g/Y2z69OnFxcWq7xbVz7KyMu33q6g7s7KygoODa2trCRpdcjSKZGB6vJs5SqdLQHxmdQOQp5PBDGJw6RIlZ2BmReXn6L346JW8Zs2as2fPOsq8rm00zueg5ksbwG63q9SkKonOzs6ZM2fqLqunnDt6llXxiD+hO0fk7SkidcZdXFzMt3+ZPXt2dXW1xWKZNGmScUu+f//+jh07uFR98803aURekqSzZ89Onz6dbo+NjeUbHXR1dS1YsIAxFhkZKbau5ubm1157jcJPmzbt5MmT/P1u3JkF3alfvyOrgvXTeLK70P79+81mc3BwcHR0tEp3zp49u7GxkY99xMfHBwYGfvvtt9zH0eJxqlSDxqd7SffJcWlcjL6otHObenp6tm/fTt9GYWFhNL/E0WoDEse6I0c0bNTU1PTCCy/k5OSI9r2+vv7f//73Cy+8wMd/ibnWLjuqCy/2p25g3UrXeupOrCHU9Hl6/PhxPz+/3Nxc+ko2fldBd3pxuxpC0cRn1uB2J4MZxODSJUpO20PJv9Wd0Z08RYpt6tSpR48eFT/qDh48GBwcrPUvKSlxtMftoOZr8+bNqm3RvvjiC8bYe++9JyoAnjdZlml1qe58G8o5dKdLm2TT54Tu25Njf0oOu92+dOnS5OTkuro6sc/SmeRsNltJSUlsbGxTU5OiKJ2dnW+99Ra9Dvg7WoyHr2qPiIgQpafYP8oYS09P7+/vpxsNjD90p8j2N7d7dGd5ebmfn5/ZbD5+/DjVBBk43S9jbS3qBuPr2UVbSQUTk/itqE9c2sgpgKu6k3r4dSdmWSwW2tyBMZaXl6fKAP856Dh7ZWWlv79/ZWWl+HKSZTkjI4Mxxsd/KcJBDTdP11sdLS0tU6ZMIYOSlJQkvghV7qNHj06dOnVQ3flowkR6enpQUBCNxxm/qxy1K2+ljXIZE6DWov3a0fXRjuQYRz7kq6IlUUWitZlkdXUfE7rXpTJSwR2pFjJfWjicTGFhIWMsOzubkh50K/jS0lLq5rhy5YqqpIOuEdSG5z6UT0eC9VlfV0TFpCN2xNkg5KZpu462OExNTRUXaHJiHuioq6v785//fOjQIe14F+WWTwjUbi5htVpzc3NjY2NFSWpg/KE79RuAe3RnZ2fnrFmzqOtINHC6glJbi7rBRlZ36tNRFEmS9u3bl5qaevXqVUdhtP6yLJ89ezY6OrqlpUV7lXyMdaf8ZOfzF154oampSfW2sFqthw4d4kMDFJuP605uKUwm06DnQ9DrQfeFSqj5dBxaBifuoyTOqRVnF43U/A1HrQX+zxaBQU+3Er+FtDPXn1JhVZZETEU0y+TvpO7k0pDH5shc8wBaB5kvcWYUTRLlkT/a2YMxlpSUJA4+qMZ8eLT8E9TRFv3EwZF85PFoHZ6vO0WGooEiN1+hZbClKLUE7TfAoD66FlXLcMg+jvqG+M5NjnbOnzNnTkdHh0vpWiyWiooKJ/tWtYqFpwXdyVH8zuEe3Ul7/9LGSaKB07VQ2lrUDaYoyooVK/iQvVgqMQnR33gqhvJEZaqamsHSP0mSVIFVaRn/NNaddIT95cuXJUkyeFvwJHxZd3Z1db355puMsYiIiE2bNo2g7pQkKS4ujk46oVog3UnmWzVe6WjNBK8jOLyegCRJHR0dfIKQqw6+n9dTAmVgSbQ200ndqZol1draStOitP6chnhSA5VUa75UNv/atWvPPffcnDlzHjx4QN/k2jEfioqLTv5q0K5ezcnJ8fPz054BMegRpp6vOwdVhzyAo75nq9XKa4o77t6929DQwH/qOrTVOrLNmFrvqFGjuJ4eO3asuEs/1Y44dY2+XhwJYpcO8Vq+fPnixYt1T2fVKhZecOhOjuJ3DrfpTp6qaODIuPAnwdjBv315VNTOtDv9iknwwOQwaCKKomRlZU2ZMkUcmqEc8uMoeWyPFOeaNWtiY2Pb2tq4p0uOQXUnj037tnCS2xA+6Hmiz4qjvr6edg+m6ThU9cYNia7qGiNCzfs7qU89MDDw0qVLdImQ0pmH1BvNQcmyzGf8cE84fIqAkw+mo/b5tB9YrSXhtaO1mVQW3ceE7qLYHJXFwF8VJ33dmUwmmtdOkdPsdm7z29vbw8LC6ImjjSYmPjlFjOefHNwaUOribC6D/PBL4oOvipl+er7u1M460xbEoDNFG1hRFLvdTqcBGewlpHvjyHpqjbNok3U7lYzbMNUmr31nHDt37tTOJ05OTlatSOG6nCYZ8wPwuD//PFM9CyNLTIxtZJXeM7OenSMQDZx2zQ0fCBg/fjz/rCGHdjJlcnKy7nSTV199lTGme0CFwT6Ld+7ceemll1RjN5cuXQoMDKTvbF4ERVHq6upCQkLCw8MNOvBtNtunn35KE0GctNG6Lx66l5tgRVG03HT3UeIDEGLOvcnd19dH+6vFx8cTZ2pdr776qnZ+EvdJSUkJCQnRfeC1po03V5WNKy4ufrTj4BdffEE8yTSHhITU1NR4E2GUxSUC9J7TXVIjDqxr3Rs3bhR7blxK1PnAWkvC7+XtnPsYv7P5LEltv+aJEycOHDhQV1cnvmVFt6pjTFcGUVb5wDpN6DSZTGVlZUuWLNEd0zh79ixtixMZGUnjHiTCfKq/82noTnrf0cGkYWFhly5d4o3EnQ6tcVbZZG2nknEbNj4li7fYyspK6ljVFZ2kd53RrLphdF9DT4MqdGcOHwGx2+3FxcW0Xyux7uzsDA8PDwsLo826DSqATy3XrU4DT93xBb7+UbVeh+azq8QoH+g5evSoQQ5p97iUlBQ+Vu5odmBoaKhqyECM1uBtwYPRp5szRoff4h2Ozs7Or7/+mp99Ra9P434L5+d3UkVr+zsVRbl9+/bEiRMXLlxos9n4TsV/oFH2jtp81ktB7znxE9HJEtGpNrqfnU7G4EwwsiRapdja2kodM6IBMX5nGySnff0bBKYJRfPmzVOZZZWkUBQlOzubMfbqq6+azWbdD/7m5uaXXnqJNl/UymgxD9rIxasGbl/o75QkqbOzU5ZlOneUb/Vvs9m2b99OJ6Du3buXd/vZ7fazZ8/eunXLgNuIXKJaE227qh61DW/IbZhnmB+YmZWVxd8y/Co5HPV/paamUheYbj8IrdOC7lTBfFo/RYvA1Z5qt5qoqCg6xNwgE3RmDz8+mH+dcBuqe1Kto/PZa2pqgoODX3rppTt37vBEbTbbwoULScKKzb26ujooKGj+/Pl8d1l+C3fQ7nFms7miooL3DRi8V1SPEI+H32v8MvNZ3SmC4kvNxMpSBeDvOd0Hnpu2O3fuZGZm8nPS2tvbVRVEktRsNq9cuZJ6WYZ5kq82n/B55giodCepSYNvYN5QDXRnT09PQkICY+y1115TrSZ0lQ+1YYP8OKM7HS3v4MNTNPYiTrPjl7hDHLyiMXTV80gDTaLBrKyspFWDZrO5tLRUt+y3b98mPSS+ZbQhVc+yNoAjHzKzcXFxXHWJIemDljG2YsUK7q97TmbZk7/hLA/g8XOH868A3Q5mHg/NcFi8eHFHR4f2e6CysjI4OJgxtmHDBtJhx44dM5lMuvtVjWwxuXHmWVXV43B0p+4sKS46eWF50qJDmy6/atAPMnxNzFNxxoH+zt/6OxVFoZXIZrP58OHDsixnZWU9MouO1iGKfOvr68eMGRMREaEVfwZGR7eJ9Pf3p6Wl+fn5HT9+XEyC9oMcP378Sy+9FBwcTEOokiStXLmSb68jhhfdqmPoVU+IGJLcBgHoEnSnFprWh6penHvOX3XcQXM5VO85sRZycnJo037agv78+fNc/YsvQqoXl84C1mYYPt5EQFd36u7qRUtbnNGdtJSbxKJqNMZVdNRiDU5REnftcPReNNCdtCexqGu106XoMRR1JwmdGTNm3Lt3j5foxIkT4sZJiqL88ssvEyZMoK0Tuey7detWWVmZVsAZvAJ0n2WerrGD+lxVw1/8FiqIap9Rre6kA58ebYS+f/9+bc55bK46Rkp30gyizZs3O5KnpMb4KKXNZouJidHuzz/ixaTWyx8ZbT1qX+6O2rCKLR1q86c//Sk3N5dvruSk6FQUpbu7u729Xbc31EB30hpE1ZwTVcZG8Cd05+90p6IoFouFOpYWLlwYHBysO2FcWwGlpaWMsbVr12ovGRgdbdOk22VZbm9vF60AXxdZUFBAvaFhYWG04FGSpMbGRjGwKg80VVQcOaJnRlQtqlsMAtAl6E4VMd2fVPXim8+R21h3aiPXVhBt8MkY47312rvg41MEdHWn+KbkNKg58UsG/Z1VVVUBAQHUjHU/s3mcgzqcsSQ8Eiff2RRekqQvv/wy6Mnf2LFjTSbT5MmTqY+2ubmZx6nroI7MuLi4tra2r7/+uqSkpLi4mI6H4fOnrVbr0qVLCYIovqlEu3fvVsVs8ArQ6hXVvQY/eV1oH3l+WFpISIi46lmrO/nO5Iyx/Px8g/eIQU60l0ZEdz4aZE9MTPTz8/v+++8d6U5SWiSz6AOgoqLCbDarziMd8WJSXYt9CqrJafzl3tvbS+OftLWCrqkXAdpsttzcXOqnnz59el1d3dWrV0NDQ8VuXTG8824D3el8JCMSErpTrTsVRWlra4uIiCCzsn79+kEfRVpQzBjTHXAxMDq8aRrXZVtb29y5c2lrHlqwcvz4cbPZHBISMui2Xnxr94yMDF4QemagO42xD/+qM8852VNdY0TVxNWAmB/dGqSPEzoQQQwMt28S0NWduqtZv/3228DAQN7SDHSnLMvl5eXvvvtuQECAMxOQDMg3NzevW7cuLy9v0FlMtPPdpCd/ra2tBnHKslxdXU2LTqZNm1ZfX082tqqqKi8vj97la9as6ezsdBQJPbPZ2dm0sJ1/KE6ZMoX2P+YKhg5LFGdDUWdwYWGhKnKDV8BwdCf/1GSMPdrP5O7du/KTv+bm5tTUVMq5SpJqdeejHQBtNhttAjiCX60jojtprwBSkAa6k9N+7733/v73v9fX18fExKiObh7xYpIF5s2DO/hblb/caSyUB1i8eLEzDb6uro6aMc1hpY26dHsxefEHdTjzPho0khEJ0Pjkb0SiUhTl2V7PzinU1dXx81JpcPPUqVMGVU4betPGijwS7jAwOrxp8sAqh3gc1ty5c/k2SbIsHzlyhMzookWLbt68qbqR/+Sj842NjdxTV7Xwq8amkO5Ff6eIy5Hbmed8+Lqzt7e3pqYmKyvrxo0b9EFiNpuLior48J+j7MHfuwno6k7+/tM6nNGdRIyMgO7wzlNCOmh/pyRJVVVVs2fPpvd0Tk4OjVGKNrauro4H0D3nkB5GvolSZ2fnd999V1JSUltbS1rh1q1b9GoIDw9vaGigxez8k57Wfbq0lZ6xsR0UptVqpT00tLXJGNuxY4fqtaWrO2lzIi5V80ei15N0p/G+8TTJgSYaicNxVGq+3IJ6lAfVnbIsJyUlPZrtVl9fX15ebjKZVF2eI1tMegT4I6OtKd7wbDZbTk5Oamrqtm3bvvvuO+1MPO295MPXTj3q0po0adLwF0s58z5ylJmR9Yfu/F1/5507d9LT0+kZTklJ+fnnn8mykC1bsGDB0aNH6bOSVwPvUNy6dSvvUORX+eIScY48XaXnRPu80dX29vbc3FzquqcRfG17FT+Jpk6dmpub29DQIBqanp4e6ijNz88Xs0TPzPDXs3d3d2/atIlvCcQdL774ou7WUU72bYhZfabdzjznQ9OdNK/jhRdeoAFExhi9LGVZPnz4MPXExMbGDnPlxzMNH5nX1Z26/Z00DsgtjEF/J395BwQEVFVVuQ1yQ0PD2LFjtcMCsiw3Nzdv2bKFm0pVs+evf8qqLMsXLlzg3QoTJkzIzs5uamqijzT6Sg8PD9d2iIqjn7wL4MqVK7SuZevWrS0tLbGxsaR7VFh414N2E6WSkhJH+8aXlJQMunW8oijUxZuQkPD888/Tm2vcuHFpaWm6nRGOdCevVnrTqZYWqIrjzE/SnbpqWNdT+x4ktuPHj6ceE76v6okTJ3S/qGkGJNVdT0/PrFmzTCZTeXm5Krd2u50U9jDHhZzXnaoMuPrz/PnzNMgeFBRUWlqqqzGcjNOZ95GTUQ0zGHTnr7qzpKRk6tSp9EiMHj362LFjvIJbW1tFu0Zhxo8f//HHH0uSRD1M/PHQ1gc3Ooqi0Iwcf39/Pud93LhxooGorKx8++23+VXGWGRkpDhBRxW/JEknT56kvcr587xkyZKHDx8qilJWVubv7z9z5kyVGaVnhod35OBDBmKidC/1d9KLzdHtWn/jXlIxFe9wO3rO29ra3nrrLfrcp0MsdF91jkxba2vryy+/zPGGh4fn5ubyd6csy6WlpUFBQYyxN954Q1X13gEWpXCGgEp3Xr16NTU1Vdsbx6NqaGhYs2ZNamrq/PnzVeugeRibzZaZmWkymZyZgMTvGoKDuqx4IyeHamRfkiT+lcUYW7ZsmWhLKVGV7iRP0mqRkZEU7ZtvvtnV1UVLUnRPHpIkKTMzkwKvWrWKC3RFUcj+83zqrqTmrwBXDaZBd9oQkA56Cy2rDQ0NFVd0DXqXbgDSnXwXF4MFK446MiVJqqio4HNqFUXJz8/nnB05+HTboqKi9evX687KGMFi6padPHUbnkF4g0t8azzVKjGDW3QvOXof6QZ+qp7Qnb/qTovFEh4ePnXq1CNHjvBFZCJ6+rAuLCyMiIgYNWoUF5ptbW3z5883+EAsKCgIDQ2l0y+sVuuiRYtMJhOtrJwzZ86FCxe4wKU92MPDw81m85tvvnn06FGazSlmw5G7vb29qKgoIiJi0qRJly9f5sEuXbr0448/8p/kIEGjKyspAK0S1d3pXdSdrh7ERzuxqTLjxT8dPefyk/PuyXT6+/u/8sor3333nZaDI91JJjgyMrK8vNzRVCGLxbJy5cpr165po4WPjxBQ6c5BS22z2ZYuXUqfQ9HR0dpxvTt37tBQxsaNG8VxlUFjHkIA2pmOy4tRo0bpZslut2dnZxuYSuPXv9VqLS0tpYmbsix/++23s2fPFnev4znv6elJSUk5e/asaK7pal1dXXR0dGho6OLFi3VHGLju1O3v1O7bz32c6e/kORwRR9eTv+FHRaeTi2c+OYrTarV+/PHHfGNOR8Ho4OgzZ86kp6fzgTWV48svv9R9d2vjHKliamPmPsYNjwdz0mG32zds2JCcnCx+8zh5Lw/m6H3EA7jN0fjkb6SSe/bmd9Lxr/Ty1u29dwbNMM9GVyVhtVq1pk0VBj9BAARAwM0EJEnas2ePwfCLm/PzNJIb8lvgaWQGcYIAJyDLstc0Tl/XnbxS4QABEAABEAABEAABEHiqBKA7nypeRA4CIAACIAACIAACIPArAehONAUQAAEQAAEQAAEQAAF3EIDudAdlpAECIAACIAACIAACIADdiTYAAiAAAiAAAiAAAiDgDgLQne6gjDRAAARAAARAAARAAASgO9EGQAAEQAAEQAAEQAAE3EEAutMdlJEGCIAACIAACIAACIAAdCfaAAiAAAiAAAiAAAiAgDsIQHe6gzLSAAEQAAEQAAEQAAEQgO5EGwABEAABEAABEAABEHAHAehOd1BGGiAAAiAAAiAAAiAAAtCdaAMgAAIgAAIgAAIgAALuIADd6Q7KSAMEQAAEQAAEQAAEQAC6E20ABEAABEAABEAABEDAHQSgO91BGWmAAAiAAAiAAAiAAAhAd6INgAAIgAAIgAAIgAAIuIMAdKc7KCMNEAABEAABEAABEAAB6E60ARAAARAAARAAARAAAXcQgO50B2WkAQIgAAIgAAIgAAIgAN2JNgACIAACIAACIAACIOAOAtCd7qCMNEAABEAABEAABEAABKA70QZAAARAAARAAARAAATcQQC60x2UkQYIgADcQFMDAAAB5UlEQVQIgAAIgAAIgAB0J9oACIAACIAACIAACICAOwhAd7qDMtIAARAAARAAARAAARCA7kQbAAEQAAEQAAEQAAEQcAcB6E53UEYaIAACIAACIAACIAAC0J1oAyAAAiAAAiAAAiAAAu4gAN3pDspIAwRAAARAAARAAARAALoTbQAEQAAEQAAEQAAEQMAdBDxLdzY1NVkslv7+fncUHWmAAAiAAAiAAAiAAAi4i0B/f39jY2NTU9NIJfg/w4yora2tsbGxra3NbrcPMyrcDgIgAAIgAAIgAAIg4CEE+vv7ucwbqSwNV3f29fU1NTVRHyz+CwIgAAIgAAIgAAIg4E0Empqa+vr6PEV3KorS19fX1tYG9elNjQxlAQEQAAEQAAEQ8HECTU1NbW1tIyg6FUUZbn/nSOlfxAMCIAACIAACIAACIODdBKA7vbt+UToQAAEQAAEQAAEQ8BQC0J2eUhPIBwiAAAiAAAiAAAh4NwHoTu+uX5QOBEAABEAABEAABDyFAHSnp9QE8gECIAACIAACIAAC3k0AutO76xelAwEQAAEQAAEQAAFPIQDd6Sk1gXyAAAiAAAiAAAiAgHcTgO707vpF6UAABEAABEAABEDAUwhAd3pKTSAfIAACIAACIAACIODdBP4foJGHobH2c6EAAAAASUVORK5CYII=;" vertex="1" parent="1">
          <mxGeometry x="160" y="83.09" width="513" height="339.51" as="geometry" />
        </mxCell>
      </root>
    </mxGraphModel>
  </diagram>
</mxfile>
